<?xml version="1.0" encoding="UTF-8"?><svg xmlns="http://www.w3.org/2000/svg" xmlns:xlink="http://www.w3.org/1999/xlink" clip-rule="evenodd" stroke-miterlimit="10" viewBox="0 0 1920 1080"><desc>SVG generated by Keynote</desc><defs></defs><g transform="matrix(1.00, 0.00, -0.00, -1.00, 0.0, 1080.0)"><path d="M 0.0 0.0 L 1920.0 0.0 L 1920.0 1080.0 L 0.0 1080.0 Z M 0.0 0.0 " fill="#FEFFFF"></path><text xml:space="preserve" font-family="PlayfairDisplay-Bold,Playfair Display" font-weight="bold" font-size="70.0" fill="#5A5E5E" transform="matrix(1.00, 0.00, -0.00, -1.00, 1351.0, 149.8)">G</text><text xml:space="preserve" font-family="PlayfairDisplay-Bold,Playfair Display" font-weight="bold" font-size="70.0" fill="#5A5E5E" transform="matrix(1.00, 0.00, -0.00, -1.00, 1402.4, 149.8)">o</text><text xml:space="preserve" font-family="PlayfairDisplay-Bold,Playfair Display" font-weight="bold" font-size="70.0" fill="#5A5E5E" transform="matrix(1.00, 0.00, -0.00, -1.00, 1442.0, 149.8)">o</text><text xml:space="preserve" font-family="PlayfairDisplay-Bold,Playfair Display" font-weight="bold" font-size="70.0" fill="#5A5E5E" transform="matrix(1.00, 0.00, -0.00, -1.00, 1481.5, 149.8)">d</text><text xml:space="preserve" font-family="PlayfairDisplay-Bold,Playfair Display" font-weight="bold" font-size="70.0" fill="#5A5E5E" transform="matrix(1.00, 0.00, -0.00, -1.00, 1523.4, 149.8)"> </text><text xml:space="preserve" font-family="PlayfairDisplay-Bold,Playfair Display" font-weight="bold" font-size="70.0" fill="#5A5E5E" transform="matrix(1.00, 0.00, -0.00, -1.00, 1538.8, 149.8)">t</text><text xml:space="preserve" font-family="PlayfairDisplay-Bold,Playfair Display" font-weight="bold" font-size="70.0" fill="#5A5E5E" transform="matrix(1.00, 0.00, -0.00, -1.00, 1563.2, 149.8)">o</text><text xml:space="preserve" font-family="PlayfairDisplay-Bold,Playfair Display" font-weight="bold" font-size="70.0" fill="#5A5E5E" transform="matrix(1.00, 0.00, -0.00, -1.00, 1602.7, 149.8)"> </text><text xml:space="preserve" font-family="PlayfairDisplay-Bold,Playfair Display" font-weight="bold" font-size="70.0" fill="#5A5E5E" transform="matrix(1.00, 0.00, -0.00, -1.00, 1618.2, 149.8)">k</text><text xml:space="preserve" font-family="PlayfairDisplay-Bold,Playfair Display" font-weight="bold" font-size="70.0" fill="#5A5E5E" transform="matrix(1.00, 0.00, -0.00, -1.00, 1659.1, 149.8)">n</text><text xml:space="preserve" font-family="PlayfairDisplay-Bold,Playfair Display" font-weight="bold" font-size="70.0" fill="#5A5E5E" transform="matrix(1.00, 0.00, -0.00, -1.00, 1702.1, 149.8)">o</text><text xml:space="preserve" font-family="PlayfairDisplay-Bold,Playfair Display" font-weight="bold" font-size="70.0" fill="#5A5E5E" transform="matrix(1.00, 0.00, -0.00, -1.00, 1740.7, 149.8)">w</text><path d="M 0.0 0.0 L 1077.2 0.0 " fill="none" stroke="#5A5E5E" stroke-opacity="0.10" stroke-width="0.25" transform="matrix(0.00, 1.00, 1.00, 0.00, 83.3, 5.3)"></path><path d="M 0.0 0.0 L 1077.2 0.0 " fill="none" stroke="#5A5E5E" stroke-opacity="0.10" stroke-width="0.25" transform="matrix(0.00, 1.00, 1.00, 0.00, 1273.3, 3.3)"></path><path d="M 0.0 0.0 L 1077.2 0.0 " fill="none" stroke="#5A5E5E" stroke-opacity="0.10" stroke-width="0.25" transform="matrix(0.00, 1.00, 1.00, 0.00, 484.7, -1.4)"></path></g></svg>