<?xml version="1.0" encoding="UTF-8"?><svg xmlns="http://www.w3.org/2000/svg" xmlns:xlink="http://www.w3.org/1999/xlink" clip-rule="evenodd" stroke-miterlimit="10" viewBox="0 0 363 30"><desc>SVG generated by Keynote</desc><defs></defs><g transform="matrix(1.00, 0.00, -0.00, -1.00, 0.0, 30.0)"><text xml:space="preserve" font-family="LucidaGrande,Lucida Grande" font-size="23.0" fill="#52575F" transform="matrix(1.00, 0.00, -0.00, -1.00, 0.3, 7.6)">‣</text><text xml:space="preserve" font-family="PlayfairDisplay,Playfair Display" font-size="23.0" fill="#52575F" transform="matrix(1.00, 0.00, -0.00, -1.00, 11.1, 6.3)"> </text><text xml:space="preserve" font-family="PlayfairDisplay,Playfair Display" font-size="23.0" fill="#52575F" transform="matrix(1.00, 0.00, -0.00, -1.00, 16.8, 6.3)">I</text><text xml:space="preserve" font-family="PlayfairDisplay,Playfair Display" font-size="23.0" fill="#52575F" transform="matrix(1.00, 0.00, -0.00, -1.00, 24.4, 6.3)">t</text><text xml:space="preserve" font-family="PlayfairDisplay,Playfair Display" font-size="23.0" fill="#52575F" transform="matrix(1.00, 0.00, -0.00, -1.00, 33.1, 6.3)">’</text><text xml:space="preserve" font-family="PlayfairDisplay,Playfair Display" font-size="23.0" fill="#52575F" transform="matrix(1.00, 0.00, -0.00, -1.00, 38.1, 6.3)">s</text><text xml:space="preserve" font-family="PlayfairDisplay,Playfair Display" font-size="23.0" fill="#52575F" transform="matrix(1.00, 0.00, -0.00, -1.00, 48.4, 6.3)"> </text><text xml:space="preserve" font-family="PlayfairDisplay,Playfair Display" font-size="23.0" fill="#52575F" transform="matrix(1.00, 0.00, -0.00, -1.00, 54.0, 6.3)">f</text><text xml:space="preserve" font-family="PlayfairDisplay,Playfair Display" font-size="23.0" fill="#52575F" transform="matrix(1.00, 0.00, -0.00, -1.00, 61.7, 6.3)">a</text><text xml:space="preserve" font-family="PlayfairDisplay,Playfair Display" font-size="23.0" fill="#52575F" transform="matrix(1.00, 0.00, -0.00, -1.00, 73.0, 6.3)">s</text><text xml:space="preserve" font-family="PlayfairDisplay,Playfair Display" font-size="23.0" fill="#52575F" transform="matrix(1.00, 0.00, -0.00, -1.00, 83.2, 6.3)">t</text><text xml:space="preserve" font-family="PlayfairDisplay,Playfair Display" font-size="23.0" fill="#52575F" transform="matrix(1.00, 0.00, -0.00, -1.00, 91.9, 6.3)">,</text><text xml:space="preserve" font-family="PlayfairDisplay,Playfair Display" font-size="23.0" fill="#52575F" transform="matrix(1.00, 0.00, -0.00, -1.00, 97.5, 6.3)"> </text><text xml:space="preserve" font-family="PlayfairDisplay,Playfair Display" font-size="23.0" fill="#52575F" transform="matrix(1.00, 0.00, -0.00, -1.00, 103.1, 6.3)">r</text><text xml:space="preserve" font-family="PlayfairDisplay,Playfair Display" font-size="23.0" fill="#52575F" transform="matrix(1.00, 0.00, -0.00, -1.00, 113.3, 6.3)">e</text><text xml:space="preserve" font-family="PlayfairDisplay,Playfair Display" font-size="23.0" fill="#52575F" transform="matrix(1.00, 0.00, -0.00, -1.00, 125.0, 6.3)">s</text><text xml:space="preserve" font-family="PlayfairDisplay,Playfair Display" font-size="23.0" fill="#52575F" transform="matrix(1.00, 0.00, -0.00, -1.00, 135.2, 6.3)">p</text><text xml:space="preserve" font-family="PlayfairDisplay,Playfair Display" font-size="23.0" fill="#52575F" transform="matrix(1.00, 0.00, -0.00, -1.00, 148.6, 6.3)">o</text><text xml:space="preserve" font-family="PlayfairDisplay,Playfair Display" font-size="23.0" fill="#52575F" transform="matrix(1.00, 0.00, -0.00, -1.00, 161.1, 6.3)">n</text><text xml:space="preserve" font-family="PlayfairDisplay,Playfair Display" font-size="23.0" fill="#52575F" transform="matrix(1.00, 0.00, -0.00, -1.00, 175.0, 6.3)">s</text><text xml:space="preserve" font-family="PlayfairDisplay,Playfair Display" font-size="23.0" fill="#52575F" transform="matrix(1.00, 0.00, -0.00, -1.00, 185.2, 6.3)">i</text><text xml:space="preserve" font-family="PlayfairDisplay,Playfair Display" font-size="23.0" fill="#52575F" transform="matrix(1.00, 0.00, -0.00, -1.00, 191.9, 6.3)">v</text><text xml:space="preserve" font-family="PlayfairDisplay,Playfair Display" font-size="23.0" fill="#52575F" transform="matrix(1.00, 0.00, -0.00, -1.00, 202.8, 6.3)">e</text><text xml:space="preserve" font-family="PlayfairDisplay,Playfair Display" font-size="23.0" fill="#52575F" transform="matrix(1.00, 0.00, -0.00, -1.00, 214.5, 6.3)"> </text><text xml:space="preserve" font-family="PlayfairDisplay,Playfair Display" font-size="23.0" fill="#52575F" transform="matrix(1.00, 0.00, -0.00, -1.00, 220.2, 6.3)">a</text><text xml:space="preserve" font-family="PlayfairDisplay,Playfair Display" font-size="23.0" fill="#52575F" transform="matrix(1.00, 0.00, -0.00, -1.00, 231.4, 6.3)">n</text><text xml:space="preserve" font-family="PlayfairDisplay,Playfair Display" font-size="23.0" fill="#52575F" transform="matrix(1.00, 0.00, -0.00, -1.00, 245.2, 6.3)">d</text><text xml:space="preserve" font-family="PlayfairDisplay,Playfair Display" font-size="23.0" fill="#52575F" transform="matrix(1.00, 0.00, -0.00, -1.00, 258.6, 6.3)"> </text><text xml:space="preserve" font-family="PlayfairDisplay,Playfair Display" font-size="23.0" fill="#52575F" transform="matrix(1.00, 0.00, -0.00, -1.00, 264.3, 6.3)">e</text><text xml:space="preserve" font-family="PlayfairDisplay,Playfair Display" font-size="23.0" fill="#52575F" transform="matrix(1.00, 0.00, -0.00, -1.00, 276.0, 6.3)">n</text><text xml:space="preserve" font-family="PlayfairDisplay,Playfair Display" font-size="23.0" fill="#52575F" transform="matrix(1.00, 0.00, -0.00, -1.00, 289.8, 6.3)">g</text><text xml:space="preserve" font-family="PlayfairDisplay,Playfair Display" font-size="23.0" fill="#52575F" transform="matrix(1.00, 0.00, -0.00, -1.00, 301.6, 6.3)">a</text><text xml:space="preserve" font-family="PlayfairDisplay,Playfair Display" font-size="23.0" fill="#52575F" transform="matrix(1.00, 0.00, -0.00, -1.00, 312.8, 6.3)">g</text><text xml:space="preserve" font-family="PlayfairDisplay,Playfair Display" font-size="23.0" fill="#52575F" transform="matrix(1.00, 0.00, -0.00, -1.00, 324.6, 6.3)">i</text><text xml:space="preserve" font-family="PlayfairDisplay,Playfair Display" font-size="23.0" fill="#52575F" transform="matrix(1.00, 0.00, -0.00, -1.00, 331.4, 6.3)">n</text><text xml:space="preserve" font-family="PlayfairDisplay,Playfair Display" font-size="23.0" fill="#52575F" transform="matrix(1.00, 0.00, -0.00, -1.00, 345.3, 6.3)">g</text><text xml:space="preserve" font-family="PlayfairDisplay,Playfair Display" font-size="23.0" fill="#52575F" transform="matrix(1.00, 0.00, -0.00, -1.00, 357.0, 6.3)">.</text></g></svg>