<?xml version="1.0" encoding="UTF-8"?><svg xmlns="http://www.w3.org/2000/svg" xmlns:xlink="http://www.w3.org/1999/xlink" clip-rule="evenodd" stroke-miterlimit="10" viewBox="0 0 315 135"><desc>SVG generated by Keynote</desc><defs></defs><g transform="matrix(1.00, 0.00, -0.00, -1.00, 0.0, 135.0)"><text xml:space="preserve" font-family="PlayfairDisplay-Bold,Playfair Display" font-weight="bold" font-size="70.0" fill="#52575F" transform="matrix(1.00, 0.00, -0.00, -1.00, -0.7, 78.1)">S</text><text xml:space="preserve" font-family="PlayfairDisplay-Bold,Playfair Display" font-weight="bold" font-size="70.0" fill="#52575F" transform="matrix(1.00, 0.00, -0.00, -1.00, 39.9, 78.1)">k</text><text xml:space="preserve" font-family="PlayfairDisplay-Bold,Playfair Display" font-weight="bold" font-size="70.0" fill="#52575F" transform="matrix(1.00, 0.00, -0.00, -1.00, 80.8, 78.1)">y</text><text xml:space="preserve" font-family="PlayfairDisplay-Bold,Playfair Display" font-weight="bold" font-size="70.0" fill="#52575F" transform="matrix(1.00, 0.00, -0.00, -1.00, 116.8, 78.1)">S</text><text xml:space="preserve" font-family="PlayfairDisplay-Bold,Playfair Display" font-weight="bold" font-size="70.0" fill="#52575F" transform="matrix(1.00, 0.00, -0.00, -1.00, 157.7, 78.1)">p</text><text xml:space="preserve" font-family="PlayfairDisplay-Bold,Playfair Display" font-weight="bold" font-size="70.0" fill="#52575F" transform="matrix(1.00, 0.00, -0.00, -1.00, 199.7, 78.1)">o</text><text xml:space="preserve" font-family="PlayfairDisplay-Bold,Playfair Display" font-weight="bold" font-size="70.0" fill="#52575F" transform="matrix(1.00, 0.00, -0.00, -1.00, 239.2, 78.1)">r</text><text xml:space="preserve" font-family="PlayfairDisplay-Bold,Playfair Display" font-weight="bold" font-size="70.0" fill="#52575F" transform="matrix(1.00, 0.00, -0.00, -1.00, 271.9, 78.1)">t</text><text xml:space="preserve" font-family="PlayfairDisplay-Bold,Playfair Display" font-weight="bold" font-size="70.0" fill="#52575F" transform="matrix(1.00, 0.00, -0.00, -1.00, 296.1, 78.1)"> </text><text xml:space="preserve" font-family="PlayfairDisplay-Bold,Playfair Display" font-weight="bold" font-size="70.0" fill="#52575F" transform="matrix(1.00, 0.00, -0.00, -1.00, 312.4, 78.1)"> </text><text xml:space="preserve" font-family="PlayfairDisplay-Bold,Playfair Display" font-weight="bold" font-size="70.0" fill="#52575F" transform="matrix(1.00, 0.00, -0.00, -1.00, -0.7, 2.9)">L</text><text xml:space="preserve" font-family="PlayfairDisplay-Bold,Playfair Display" font-weight="bold" font-size="70.0" fill="#52575F" transform="matrix(1.00, 0.00, -0.00, -1.00, 42.1, 2.9)">i</text><text xml:space="preserve" font-family="PlayfairDisplay-Bold,Playfair Display" font-weight="bold" font-size="70.0" fill="#52575F" transform="matrix(1.00, 0.00, -0.00, -1.00, 63.8, 2.9)">v</text><text xml:space="preserve" font-family="PlayfairDisplay-Bold,Playfair Display" font-weight="bold" font-size="70.0" fill="#52575F" transform="matrix(1.00, 0.00, -0.00, -1.00, 98.3, 2.9)">e</text><text xml:space="preserve" font-family="PlayfairDisplay-Bold,Playfair Display" font-weight="bold" font-size="70.0" fill="#52575F" transform="matrix(1.00, 0.00, -0.00, -1.00, 133.6, 2.9)"> </text><text xml:space="preserve" font-family="PlayfairDisplay-Bold,Playfair Display" font-weight="bold" font-size="70.0" fill="#52575F" transform="matrix(1.00, 0.00, -0.00, -1.00, 149.9, 2.9)">d</text><text xml:space="preserve" font-family="PlayfairDisplay-Bold,Playfair Display" font-weight="bold" font-size="70.0" fill="#52575F" transform="matrix(1.00, 0.00, -0.00, -1.00, 191.7, 2.9)">a</text><text xml:space="preserve" font-family="PlayfairDisplay-Bold,Playfair Display" font-weight="bold" font-size="70.0" fill="#52575F" transform="matrix(1.00, 0.00, -0.00, -1.00, 228.0, 2.9)">t</text><text xml:space="preserve" font-family="PlayfairDisplay-Bold,Playfair Display" font-weight="bold" font-size="70.0" fill="#52575F" transform="matrix(1.00, 0.00, -0.00, -1.00, 252.6, 2.9)">a</text></g></svg>