<?xml version="1.0" encoding="UTF-8"?><svg xmlns="http://www.w3.org/2000/svg" xmlns:xlink="http://www.w3.org/1999/xlink" clip-rule="evenodd" stroke-miterlimit="10" viewBox="0 0 1920 1080"><desc>SVG generated by Keynote</desc><defs></defs><g transform="matrix(1.00, 0.00, -0.00, -1.00, 0.0, 1080.0)"><path d="M 0.0 0.0 L 1920.0 0.0 L 1920.0 1080.0 L 0.0 1080.0 Z M 0.0 0.0 " fill="#FEFFFF"></path><g><clipPath id="clip0x6000026b9740"><path d="M -2.0 1079.0 L 1928.0 1079.0 L 1928.0 1.0 L -2.0 1.0 Z M -2.3 1079.1 "></path></clipPath><g clip-path="url(#clip0x6000026b9740)"><image xlink:href="../../48A4FC4A-23D0-4ECE-BE00-979839B707C8/assets/924258A7BE01EF2B235B7A151EF15E57.png" width="1914.00" height="1069.00" transform="matrix(1.01, 0.00, -0.00, -1.01, -2.0, 1079.0)"></image></g></g><g opacity="0.43"><g><clipPath id="clip0x604002abf260"><path d="M 818.0 378.0 L 1122.0 378.0 L 1122.0 682.0 L 818.0 682.0 Z M 818.0 378.0 "></path></clipPath><g clip-path="url(#clip0x604002abf260)"><path d="M 252.5 43.3 C 310.3 101.1 310.3 194.8 252.5 252.5 C 194.8 310.3 101.1 310.3 43.3 252.5 C -14.4 194.8 -14.4 101.1 43.3 43.3 C 101.1 -14.4 194.8 -14.4 252.5 43.3 Z M 252.5 43.3 " fill="none" stroke="#FEFFFE" stroke-width="5.00" transform="matrix(1.00, 0.00, 0.00, -1.00, 822.1, 677.9)"></path></g></g></g><g opacity="0.40"><g><clipPath id="clip0x604002abf740"><path d="M 864.0 446.0 L 1032.0 446.0 L 1032.0 614.0 L 864.0 614.0 Z M 864.0 446.0 "></path></clipPath><g clip-path="url(#clip0x604002abf740)"><path d="M 949.3 449.9 L 1029.4 530.0 L 949.3 610.1 Z M 949.3 449.9 " fill="#FEFFFE"></path><path d="M 0.0 0.0 L 0.0 113.3 L 113.3 113.3 Z M 0.0 0.0 " fill="none" stroke="#78A9B3" stroke-width="2.00" transform="matrix(-0.71, 0.71, 0.71, 0.71, 949.3, 449.9)"></path></g></g></g></g></svg>