<?xml version="1.0" encoding="UTF-8"?><svg xmlns="http://www.w3.org/2000/svg" xmlns:xlink="http://www.w3.org/1999/xlink" clip-rule="evenodd" stroke-miterlimit="10" viewBox="0 0 1920 1080"><desc>SVG generated by Keynote</desc><defs></defs><g transform="matrix(1.00, 0.00, -0.00, -1.00, 0.0, 1080.0)"><path d="M 0.0 0.0 L 1920.0 0.0 L 1920.0 1080.0 L 0.0 1080.0 Z M 0.0 0.0 " fill="#FEFFFF"></path><g><clipPath id="clip0x604002aa94e0"><path d="M -12.0 1094.0 L 1932.0 1094.0 L 1932.0 -4.0 L -12.0 -4.0 Z M -11.7 1093.6 "></path></clipPath><g clip-path="url(#clip0x604002aa94e0)"><image xlink:href="../../90AD7B81-6A0C-4622-A81E-F81DA29FE59B/assets/1438F1ABD870BD1C78E42BEB1A189636.png" width="1914.00" height="1076.00" transform="matrix(1.02, 0.00, -0.00, -1.02, -12.0, 1084.0)"></image></g></g><text xml:space="preserve" font-family="PlayfairDisplay-Bold,Playfair Display" font-weight="bold" font-size="101.0" fill="#FEFFFE" transform="matrix(1.00, 0.00, -0.00, -1.00, 1316.2, 254.9)">M</text><text xml:space="preserve" font-family="PlayfairDisplay-Bold,Playfair Display" font-weight="bold" font-size="101.0" fill="#FEFFFE" transform="matrix(1.00, 0.00, -0.00, -1.00, 1409.8, 254.9)">i</text><text xml:space="preserve" font-family="PlayfairDisplay-Bold,Playfair Display" font-weight="bold" font-size="101.0" fill="#FEFFFE" transform="matrix(1.00, 0.00, -0.00, -1.00, 1441.6, 254.9)">c</text><text xml:space="preserve" font-family="PlayfairDisplay-Bold,Playfair Display" font-weight="bold" font-size="101.0" fill="#FEFFFE" transform="matrix(1.00, 0.00, -0.00, -1.00, 1491.7, 254.9)">r</text><text xml:space="preserve" font-family="PlayfairDisplay-Bold,Playfair Display" font-weight="bold" font-size="101.0" fill="#FEFFFE" transform="matrix(1.00, 0.00, -0.00, -1.00, 1537.4, 254.9)">o</text><text xml:space="preserve" font-family="PlayfairDisplay-Bold,Playfair Display" font-weight="bold" font-size="101.0" fill="#FEFFFE" transform="matrix(1.00, 0.00, -0.00, -1.00, 1594.5, 254.9)">s</text><text xml:space="preserve" font-family="PlayfairDisplay-Bold,Playfair Display" font-weight="bold" font-size="101.0" fill="#FEFFFE" transform="matrix(1.00, 0.00, -0.00, -1.00, 1641.1, 254.9)">o</text><text xml:space="preserve" font-family="PlayfairDisplay-Bold,Playfair Display" font-weight="bold" font-size="101.0" fill="#FEFFFE" transform="matrix(1.00, 0.00, -0.00, -1.00, 1698.1, 254.9)">f</text><text xml:space="preserve" font-family="PlayfairDisplay-Bold,Playfair Display" font-weight="bold" font-size="101.0" fill="#FEFFFE" transform="matrix(1.00, 0.00, -0.00, -1.00, 1733.7, 254.9)">t</text><text xml:space="preserve" font-family="PlayfairDisplay-Bold,Playfair Display" font-weight="bold" font-size="101.0" fill="#FEFFFE" transform="matrix(1.00, 0.00, -0.00, -1.00, 1768.5, 254.9)"> </text><text xml:space="preserve" font-family="PlayfairDisplay-Bold,Playfair Display" font-weight="bold" font-size="101.0" fill="#FEFFFE" transform="matrix(1.00, 0.00, -0.00, -1.00, 1792.0, 254.9)"> </text><text xml:space="preserve" font-family="PlayfairDisplay-Bold,Playfair Display" font-weight="bold" font-size="101.0" fill="#FEFFFE" transform="matrix(1.00, 0.00, -0.00, -1.00, 1029.6, 147.7)">S</text><text xml:space="preserve" font-family="PlayfairDisplay-Bold,Playfair Display" font-weight="bold" font-size="101.0" fill="#FEFFFE" transform="matrix(1.00, 0.00, -0.00, -1.00, 1088.1, 147.7)">k</text><text xml:space="preserve" font-family="PlayfairDisplay-Bold,Playfair Display" font-weight="bold" font-size="101.0" fill="#FEFFFE" transform="matrix(1.00, 0.00, -0.00, -1.00, 1147.2, 147.7)">y</text><text xml:space="preserve" font-family="PlayfairDisplay-Bold,Playfair Display" font-weight="bold" font-size="101.0" fill="#FEFFFE" transform="matrix(1.00, 0.00, -0.00, -1.00, 1199.6, 147.7)">p</text><text xml:space="preserve" font-family="PlayfairDisplay-Bold,Playfair Display" font-weight="bold" font-size="101.0" fill="#FEFFFE" transform="matrix(1.00, 0.00, -0.00, -1.00, 1260.2, 147.7)">e</text><text xml:space="preserve" font-family="PlayfairDisplay-Bold,Playfair Display" font-weight="bold" font-size="101.0" fill="#FEFFFE" transform="matrix(1.00, 0.00, -0.00, -1.00, 1311.1, 147.7)"> </text><text xml:space="preserve" font-family="Modern-Regular,Modern No. 20" font-size="101.0" fill="#FEFFFE" transform="matrix(1.00, 0.00, -0.00, -1.00, 1334.6, 147.7)">3</text><text xml:space="preserve" font-family="Modern-Regular,Modern No. 20" font-size="101.0" fill="#FEFFFE" transform="matrix(1.00, 0.00, -0.00, -1.00, 1380.5, 147.7)">D</text><text xml:space="preserve" font-family="PlayfairDisplay-Bold,Playfair Display" font-weight="bold" font-size="101.0" fill="#FEFFFE" transform="matrix(1.00, 0.00, -0.00, -1.00, 1453.9, 147.7)"> </text><text xml:space="preserve" font-family="PlayfairDisplay-Bold,Playfair Display" font-weight="bold" font-size="101.0" fill="#FEFFFE" transform="matrix(1.00, 0.00, -0.00, -1.00, 1477.4, 147.7)">E</text><text xml:space="preserve" font-family="PlayfairDisplay-Bold,Playfair Display" font-weight="bold" font-size="101.0" fill="#FEFFFE" transform="matrix(1.00, 0.00, -0.00, -1.00, 1541.4, 147.7)">m</text><text xml:space="preserve" font-family="PlayfairDisplay-Bold,Playfair Display" font-weight="bold" font-size="101.0" fill="#FEFFFE" transform="matrix(1.00, 0.00, -0.00, -1.00, 1632.8, 147.7)">o</text><text xml:space="preserve" font-family="PlayfairDisplay-Bold,Playfair Display" font-weight="bold" font-size="101.0" fill="#FEFFFE" transform="matrix(1.00, 0.00, -0.00, -1.00, 1689.8, 147.7)">j</text><text xml:space="preserve" font-family="PlayfairDisplay-Bold,Playfair Display" font-weight="bold" font-size="101.0" fill="#FEFFFE" transform="matrix(1.00, 0.00, -0.00, -1.00, 1719.0, 147.7)">y</text><text xml:space="preserve" font-family="PlayfairDisplay-Bold,Playfair Display" font-weight="bold" font-size="101.0" fill="#FEFFFE" transform="matrix(1.00, 0.00, -0.00, -1.00, 1768.6, 147.7)"> </text><text xml:space="preserve" font-family="SegoeUI-Light,Segoe UI" font-size="35.0" fill="#FEFFFE" transform="matrix(1.00, 0.00, -0.00, -1.00, 1557.5, 367.9)">C</text><text xml:space="preserve" font-family="SegoeUI-Light,Segoe UI" font-size="35.0" fill="#FEFFFE" transform="matrix(1.00, 0.00, -0.00, -1.00, 1579.3, 367.9)">a</text><text xml:space="preserve" font-family="SegoeUI-Light,Segoe UI" font-size="35.0" fill="#FEFFFE" transform="matrix(1.00, 0.00, -0.00, -1.00, 1596.5, 367.9)">s</text><text xml:space="preserve" font-family="SegoeUI-Light,Segoe UI" font-size="35.0" fill="#FEFFFE" transform="matrix(1.00, 0.00, -0.00, -1.00, 1610.1, 367.9)">e</text><text xml:space="preserve" font-family="SegoeUI-Light,Segoe UI" font-size="35.0" fill="#FEFFFE" transform="matrix(1.00, 0.00, -0.00, -1.00, 1627.8, 367.9)"> </text><text xml:space="preserve" font-family="SegoeUI-Light,Segoe UI" font-size="35.0" fill="#FEFFFE" transform="matrix(1.00, 0.00, -0.00, -1.00, 1637.4, 367.9)">S</text><text xml:space="preserve" font-family="SegoeUI-Light,Segoe UI" font-size="35.0" fill="#FEFFFE" transform="matrix(1.00, 0.00, -0.00, -1.00, 1654.8, 367.9)">t</text><text xml:space="preserve" font-family="SegoeUI-Light,Segoe UI" font-size="35.0" fill="#FEFFFE" transform="matrix(1.00, 0.00, -0.00, -1.00, 1665.2, 367.9)">u</text><text xml:space="preserve" font-family="SegoeUI-Light,Segoe UI" font-size="35.0" fill="#FEFFFE" transform="matrix(1.00, 0.00, -0.00, -1.00, 1683.9, 367.9)">d</text><text xml:space="preserve" font-family="SegoeUI-Light,Segoe UI" font-size="35.0" fill="#FEFFFE" transform="matrix(1.00, 0.00, -0.00, -1.00, 1703.5, 367.9)">y</text><text xml:space="preserve" font-family="SegoeUI-Light,Segoe UI" font-size="35.0" fill="#FEFFFE" transform="matrix(1.00, 0.00, -0.00, -1.00, 1719.4, 367.9)"> </text><text xml:space="preserve" font-family="SegoeUI-Light,Segoe UI" font-size="35.0" fill="#FEFFFE" transform="matrix(1.00, 0.00, -0.00, -1.00, 1729.0, 367.9)">#</text><text xml:space="preserve" font-family="SegoeUI-Light,Segoe UI" font-size="35.0" fill="#FEFFFE" transform="matrix(1.00, 0.00, -0.00, -1.00, 1750.1, 367.9)">4</text></g></svg>