<?xml version="1.0" encoding="UTF-8"?><svg xmlns="http://www.w3.org/2000/svg" xmlns:xlink="http://www.w3.org/1999/xlink" clip-rule="evenodd" stroke-miterlimit="10" viewBox="0 0 129 25"><desc>SVG generated by Keynote</desc><defs></defs><g transform="matrix(1.00, 0.00, -0.00, -1.00, 0.0, 25.0)"><text xml:space="preserve" font-family="PlayfairDisplay,Playfair Display" font-size="22.0" fill="#A6AAA8" transform="matrix(1.00, 0.00, -0.00, -1.00, 2.8, 5.4)">A</text><text xml:space="preserve" font-family="PlayfairDisplay,Playfair Display" font-size="22.0" fill="#A6AAA8" transform="matrix(1.00, 0.00, -0.00, -1.00, 16.4, 5.4)">p</text><text xml:space="preserve" font-family="PlayfairDisplay,Playfair Display" font-size="22.0" fill="#A6AAA8" transform="matrix(1.00, 0.00, -0.00, -1.00, 29.1, 5.4)">p</text><text xml:space="preserve" font-family="PlayfairDisplay,Playfair Display" font-size="22.0" fill="#A6AAA8" transform="matrix(1.00, 0.00, -0.00, -1.00, 41.9, 5.4)"> </text><text xml:space="preserve" font-family="PlayfairDisplay,Playfair Display" font-size="22.0" fill="#A6AAA8" transform="matrix(1.00, 0.00, -0.00, -1.00, 47.4, 5.4)">o</text><text xml:space="preserve" font-family="PlayfairDisplay,Playfair Display" font-size="22.0" fill="#A6AAA8" transform="matrix(1.00, 0.00, -0.00, -1.00, 59.3, 5.4)">p</text><text xml:space="preserve" font-family="PlayfairDisplay,Playfair Display" font-size="22.0" fill="#A6AAA8" transform="matrix(1.00, 0.00, -0.00, -1.00, 72.1, 5.4)">e</text><text xml:space="preserve" font-family="PlayfairDisplay,Playfair Display" font-size="22.0" fill="#A6AAA8" transform="matrix(1.00, 0.00, -0.00, -1.00, 83.3, 5.4)">n</text><text xml:space="preserve" font-family="PlayfairDisplay,Playfair Display" font-size="22.0" fill="#A6AAA8" transform="matrix(1.00, 0.00, -0.00, -1.00, 96.5, 5.4)">i</text><text xml:space="preserve" font-family="PlayfairDisplay,Playfair Display" font-size="22.0" fill="#A6AAA8" transform="matrix(1.00, 0.00, -0.00, -1.00, 103.1, 5.4)">n</text><text xml:space="preserve" font-family="PlayfairDisplay,Playfair Display" font-size="22.0" fill="#A6AAA8" transform="matrix(1.00, 0.00, -0.00, -1.00, 116.3, 5.4)">g</text></g></svg>