<?xml version="1.0" encoding="UTF-8"?><svg xmlns="http://www.w3.org/2000/svg" xmlns:xlink="http://www.w3.org/1999/xlink" clip-rule="evenodd" stroke-miterlimit="10" viewBox="0 0 159 22"><desc>SVG generated by Keynote</desc><defs></defs><g transform="matrix(1.00, 0.00, -0.00, -1.00, 0.0, 22.0)"><text xml:space="preserve" font-family="PlayfairDisplay,Playfair Display" font-size="18.0" fill="#52575F" transform="matrix(1.00, 0.00, -0.00, -1.00, 1.2, 5.9)">S</text><text xml:space="preserve" font-family="PlayfairDisplay,Playfair Display" font-size="18.0" fill="#52575F" transform="matrix(1.00, 0.00, -0.00, -1.00, 10.8, 5.9)">p</text><text xml:space="preserve" font-family="PlayfairDisplay,Playfair Display" font-size="18.0" fill="#52575F" transform="matrix(1.00, 0.00, -0.00, -1.00, 21.2, 5.9)">e</text><text xml:space="preserve" font-family="PlayfairDisplay,Playfair Display" font-size="18.0" fill="#52575F" transform="matrix(1.00, 0.00, -0.00, -1.00, 30.4, 5.9)">e</text><text xml:space="preserve" font-family="PlayfairDisplay,Playfair Display" font-size="18.0" fill="#52575F" transform="matrix(1.00, 0.00, -0.00, -1.00, 39.5, 5.9)">c</text><text xml:space="preserve" font-family="PlayfairDisplay,Playfair Display" font-size="18.0" fill="#52575F" transform="matrix(1.00, 0.00, -0.00, -1.00, 48.2, 5.9)">h</text><text xml:space="preserve" font-family="PlayfairDisplay,Playfair Display" font-size="18.0" fill="#52575F" transform="matrix(1.00, 0.00, -0.00, -1.00, 58.9, 5.9)"> </text><text xml:space="preserve" font-family="PlayfairDisplay,Playfair Display" font-size="18.0" fill="#52575F" transform="matrix(1.00, 0.00, -0.00, -1.00, 63.4, 5.9)">r</text><text xml:space="preserve" font-family="PlayfairDisplay,Playfair Display" font-size="18.0" fill="#52575F" transform="matrix(1.00, 0.00, -0.00, -1.00, 71.3, 5.9)">e</text><text xml:space="preserve" font-family="PlayfairDisplay,Playfair Display" font-size="18.0" fill="#52575F" transform="matrix(1.00, 0.00, -0.00, -1.00, 80.5, 5.9)">c</text><text xml:space="preserve" font-family="PlayfairDisplay,Playfair Display" font-size="18.0" fill="#52575F" transform="matrix(1.00, 0.00, -0.00, -1.00, 89.2, 5.9)">o</text><text xml:space="preserve" font-family="PlayfairDisplay,Playfair Display" font-size="18.0" fill="#52575F" transform="matrix(1.00, 0.00, -0.00, -1.00, 99.1, 5.9)">g</text><text xml:space="preserve" font-family="PlayfairDisplay,Playfair Display" font-size="18.0" fill="#52575F" transform="matrix(1.00, 0.00, -0.00, -1.00, 108.2, 5.9)">n</text><text xml:space="preserve" font-family="PlayfairDisplay,Playfair Display" font-size="18.0" fill="#52575F" transform="matrix(1.00, 0.00, -0.00, -1.00, 119.1, 5.9)">i</text><text xml:space="preserve" font-family="PlayfairDisplay,Playfair Display" font-size="18.0" fill="#52575F" transform="matrix(1.00, 0.00, -0.00, -1.00, 124.4, 5.9)">t</text><text xml:space="preserve" font-family="PlayfairDisplay,Playfair Display" font-size="18.0" fill="#52575F" transform="matrix(1.00, 0.00, -0.00, -1.00, 131.2, 5.9)">i</text><text xml:space="preserve" font-family="PlayfairDisplay,Playfair Display" font-size="18.0" fill="#52575F" transform="matrix(1.00, 0.00, -0.00, -1.00, 136.5, 5.9)">o</text><text xml:space="preserve" font-family="PlayfairDisplay,Playfair Display" font-size="18.0" fill="#52575F" transform="matrix(1.00, 0.00, -0.00, -1.00, 146.3, 5.9)">n</text></g></svg>