<?xml version="1.0" encoding="UTF-8"?><svg xmlns="http://www.w3.org/2000/svg" xmlns:xlink="http://www.w3.org/1999/xlink" clip-rule="evenodd" stroke-miterlimit="10" viewBox="0 0 460 46"><desc>SVG generated by Keynote</desc><defs></defs><g transform="matrix(1.00, 0.00, -0.00, -1.00, 0.0, 46.0)"><text xml:space="preserve" font-family="PlayfairDisplay,Playfair Display" font-size="43.0" fill="#A6AAA8" transform="matrix(1.00, 0.00, -0.00, -1.00, 0.8, 10.3)">T</text><text xml:space="preserve" font-family="PlayfairDisplay,Playfair Display" font-size="43.0" fill="#A6AAA8" transform="matrix(1.00, 0.00, -0.00, -1.00, 27.8, 10.3)">h</text><text xml:space="preserve" font-family="PlayfairDisplay,Playfair Display" font-size="43.0" fill="#A6AAA8" transform="matrix(1.00, 0.00, -0.00, -1.00, 53.2, 10.3)">e</text><text xml:space="preserve" font-family="PlayfairDisplay,Playfair Display" font-size="43.0" fill="#A6AAA8" transform="matrix(1.00, 0.00, -0.00, -1.00, 75.0, 10.3)"> </text><text xml:space="preserve" font-family="PlayfairDisplay,Playfair Display" font-size="43.0" fill="#A6AAA8" transform="matrix(1.00, 0.00, -0.00, -1.00, 85.7, 10.3)">p</text><text xml:space="preserve" font-family="PlayfairDisplay,Playfair Display" font-size="43.0" fill="#A6AAA8" transform="matrix(1.00, 0.00, -0.00, -1.00, 110.5, 10.3)">r</text><text xml:space="preserve" font-family="PlayfairDisplay,Playfair Display" font-size="43.0" fill="#A6AAA8" transform="matrix(1.00, 0.00, -0.00, -1.00, 129.5, 10.3)">o</text><text xml:space="preserve" font-family="PlayfairDisplay,Playfair Display" font-size="43.0" fill="#A6AAA8" transform="matrix(1.00, 0.00, -0.00, -1.00, 153.1, 10.3)">c</text><text xml:space="preserve" font-family="PlayfairDisplay,Playfair Display" font-size="43.0" fill="#A6AAA8" transform="matrix(1.00, 0.00, -0.00, -1.00, 173.9, 10.3)">e</text><text xml:space="preserve" font-family="PlayfairDisplay,Playfair Display" font-size="43.0" fill="#A6AAA8" transform="matrix(1.00, 0.00, -0.00, -1.00, 195.7, 10.3)">s</text><text xml:space="preserve" font-family="PlayfairDisplay,Playfair Display" font-size="43.0" fill="#A6AAA8" transform="matrix(1.00, 0.00, -0.00, -1.00, 214.9, 10.3)">s</text><text xml:space="preserve" font-family="PlayfairDisplay,Playfair Display" font-size="43.0" fill="#A6AAA8" transform="matrix(1.00, 0.00, -0.00, -1.00, 234.0, 10.3)"> </text><text xml:space="preserve" font-family="PlayfairDisplay,Playfair Display" font-size="43.0" fill="#A6AAA8" transform="matrix(1.00, 0.00, -0.00, -1.00, 244.6, 10.3)">i</text><text xml:space="preserve" font-family="PlayfairDisplay,Playfair Display" font-size="43.0" fill="#A6AAA8" transform="matrix(1.00, 0.00, -0.00, -1.00, 257.4, 10.3)">n</text><text xml:space="preserve" font-family="PlayfairDisplay,Playfair Display" font-size="43.0" fill="#A6AAA8" transform="matrix(1.00, 0.00, -0.00, -1.00, 283.3, 10.3)"> </text><text xml:space="preserve" font-family="PlayfairDisplay,Playfair Display" font-size="43.0" fill="#A6AAA8" transform="matrix(1.00, 0.00, -0.00, -1.00, 293.9, 10.3)">s</text><text xml:space="preserve" font-family="PlayfairDisplay,Playfair Display" font-size="43.0" fill="#A6AAA8" transform="matrix(1.00, 0.00, -0.00, -1.00, 313.1, 10.3)">i</text><text xml:space="preserve" font-family="PlayfairDisplay,Playfair Display" font-size="43.0" fill="#A6AAA8" transform="matrix(1.00, 0.00, -0.00, -1.00, 325.9, 10.3)">x</text><text xml:space="preserve" font-family="PlayfairDisplay,Playfair Display" font-size="43.0" fill="#A6AAA8" transform="matrix(1.00, 0.00, -0.00, -1.00, 348.0, 10.3)"> </text><text xml:space="preserve" font-family="PlayfairDisplay,Playfair Display" font-size="43.0" fill="#A6AAA8" transform="matrix(1.00, 0.00, -0.00, -1.00, 358.7, 10.3)">s</text><text xml:space="preserve" font-family="PlayfairDisplay,Playfair Display" font-size="43.0" fill="#A6AAA8" transform="matrix(1.00, 0.00, -0.00, -1.00, 377.8, 10.3)">t</text><text xml:space="preserve" font-family="PlayfairDisplay,Playfair Display" font-size="43.0" fill="#A6AAA8" transform="matrix(1.00, 0.00, -0.00, -1.00, 394.0, 10.3)">e</text><text xml:space="preserve" font-family="PlayfairDisplay,Playfair Display" font-size="43.0" fill="#A6AAA8" transform="matrix(1.00, 0.00, -0.00, -1.00, 415.8, 10.3)">p</text><text xml:space="preserve" font-family="PlayfairDisplay,Playfair Display" font-size="43.0" fill="#A6AAA8" transform="matrix(1.00, 0.00, -0.00, -1.00, 440.8, 10.3)">s</text></g></svg>