<?xml version="1.0" encoding="UTF-8"?><svg xmlns="http://www.w3.org/2000/svg" xmlns:xlink="http://www.w3.org/1999/xlink" clip-rule="evenodd" stroke-miterlimit="10" viewBox="0 0 64 63"><desc>SVG generated by Keynote</desc><defs></defs><g transform="matrix(1.00, 0.00, -0.00, -1.00, 0.0, 63.0)"><g><clipPath id="clip0x604002cbb5a0"><path d="M 0.8 0.0 L 63.5 0.0 L 63.5 62.7 L 0.8 62.7 Z M 0.8 0.0 "></path></clipPath><g clip-path="url(#clip0x604002cbb5a0)"><path d="M 53.6 52.8 C 65.4 40.9 65.4 21.7 53.6 9.9 C 41.7 -1.9 22.5 -1.9 10.7 9.9 C -1.2 21.7 -1.2 40.9 10.7 52.8 C 22.5 64.6 41.7 64.6 53.6 52.8 Z M 53.6 52.8 " fill="#A6AAA8"></path></g></g><g><clipPath id="clip0x604002cbb600"><path d="M 15.9 18.8 L 48.7 18.8 L 48.7 49.8 L 15.9 49.8 Z M 15.9 18.8 "></path></clipPath><g clip-path="url(#clip0x604002cbb600)"><text xml:space="preserve" font-family="PlayfairDisplay,Playfair Display" font-size="26.0" fill="#FEFFFE" transform="matrix(1.00, 0.00, -0.00, -1.00, 25.0, 22.1)">6</text></g></g></g></svg>