<?xml version="1.0" encoding="UTF-8"?><svg xmlns="http://www.w3.org/2000/svg" xmlns:xlink="http://www.w3.org/1999/xlink" clip-rule="evenodd" stroke-miterlimit="10" viewBox="0 0 64 63"><desc>SVG generated by Keynote</desc><defs></defs><g transform="matrix(1.00, 0.00, -0.00, -1.00, 0.0, 63.0)"><g><clipPath id="clip0x600002aa5d60"><path d="M 0.6 0.0 L 63.3 0.0 L 63.3 62.7 L 0.6 62.7 Z M 0.6 0.0 "></path></clipPath><g clip-path="url(#clip0x600002aa5d60)"><path d="M 53.4 52.8 C 65.3 40.9 65.3 21.7 53.4 9.9 C 41.6 -1.9 22.4 -1.9 10.5 9.9 C -1.3 21.7 -1.3 40.9 10.5 52.8 C 22.4 64.6 41.6 64.6 53.4 52.8 Z M 53.4 52.8 " fill="#A6AAA8"></path></g></g><g><clipPath id="clip0x600002aa5dc0"><path d="M 15.8 18.8 L 48.5 18.8 L 48.5 49.8 L 15.8 49.8 Z M 15.8 18.8 "></path></clipPath><g clip-path="url(#clip0x600002aa5dc0)"><text xml:space="preserve" font-family="PlayfairDisplay,Playfair Display" font-size="26.0" fill="#FEFFFE" transform="matrix(1.00, 0.00, -0.00, -1.00, 25.5, 22.1)">3</text></g></g></g></svg>