<?xml version="1.0" encoding="UTF-8"?><svg xmlns="http://www.w3.org/2000/svg" xmlns:xlink="http://www.w3.org/1999/xlink" clip-rule="evenodd" stroke-miterlimit="10" viewBox="0 0 594 58"><desc>SVG generated by Keynote</desc><defs></defs><g transform="matrix(1.00, 0.00, -0.00, -1.00, 0.0, 58.0)"><text xml:space="preserve" font-family="PlayfairDisplay-Bold,Playfair Display" font-weight="bold" font-size="56.0" fill="#52575F" transform="matrix(1.00, 0.00, -0.00, -1.00, 0.8, 12.7)">E</text><text xml:space="preserve" font-family="PlayfairDisplay-Bold,Playfair Display" font-weight="bold" font-size="56.0" fill="#52575F" transform="matrix(1.00, 0.00, -0.00, -1.00, 36.3, 12.7)">x</text><text xml:space="preserve" font-family="PlayfairDisplay-Bold,Playfair Display" font-weight="bold" font-size="56.0" fill="#52575F" transform="matrix(1.00, 0.00, -0.00, -1.00, 66.3, 12.7)">p</text><text xml:space="preserve" font-family="PlayfairDisplay-Bold,Playfair Display" font-weight="bold" font-size="56.0" fill="#52575F" transform="matrix(1.00, 0.00, -0.00, -1.00, 99.9, 12.7)">e</text><text xml:space="preserve" font-family="PlayfairDisplay-Bold,Playfair Display" font-weight="bold" font-size="56.0" fill="#52575F" transform="matrix(1.00, 0.00, -0.00, -1.00, 127.8, 12.7)">r</text><text xml:space="preserve" font-family="PlayfairDisplay-Bold,Playfair Display" font-weight="bold" font-size="56.0" fill="#52575F" transform="matrix(1.00, 0.00, -0.00, -1.00, 153.9, 12.7)">i</text><text xml:space="preserve" font-family="PlayfairDisplay-Bold,Playfair Display" font-weight="bold" font-size="56.0" fill="#52575F" transform="matrix(1.00, 0.00, -0.00, -1.00, 171.6, 12.7)">e</text><text xml:space="preserve" font-family="PlayfairDisplay-Bold,Playfair Display" font-weight="bold" font-size="56.0" fill="#52575F" transform="matrix(1.00, 0.00, -0.00, -1.00, 199.5, 12.7)">n</text><text xml:space="preserve" font-family="PlayfairDisplay-Bold,Playfair Display" font-weight="bold" font-size="56.0" fill="#52575F" transform="matrix(1.00, 0.00, -0.00, -1.00, 233.8, 12.7)">c</text><text xml:space="preserve" font-family="PlayfairDisplay-Bold,Playfair Display" font-weight="bold" font-size="56.0" fill="#52575F" transform="matrix(1.00, 0.00, -0.00, -1.00, 261.6, 12.7)">e</text><text xml:space="preserve" font-family="PlayfairDisplay-Bold,Playfair Display" font-weight="bold" font-size="56.0" fill="#52575F" transform="matrix(1.00, 0.00, -0.00, -1.00, 289.9, 12.7)"> </text><text xml:space="preserve" font-family="PlayfairDisplay-Bold,Playfair Display" font-weight="bold" font-size="56.0" fill="#52575F" transform="matrix(1.00, 0.00, -0.00, -1.00, 302.9, 12.7)">b</text><text xml:space="preserve" font-family="PlayfairDisplay-Bold,Playfair Display" font-weight="bold" font-size="56.0" fill="#52575F" transform="matrix(1.00, 0.00, -0.00, -1.00, 335.7, 12.7)">r</text><text xml:space="preserve" font-family="PlayfairDisplay-Bold,Playfair Display" font-weight="bold" font-size="56.0" fill="#52575F" transform="matrix(1.00, 0.00, -0.00, -1.00, 361.0, 12.7)">e</text><text xml:space="preserve" font-family="PlayfairDisplay-Bold,Playfair Display" font-weight="bold" font-size="56.0" fill="#52575F" transform="matrix(1.00, 0.00, -0.00, -1.00, 389.3, 12.7)">a</text><text xml:space="preserve" font-family="PlayfairDisplay-Bold,Playfair Display" font-weight="bold" font-size="56.0" fill="#52575F" transform="matrix(1.00, 0.00, -0.00, -1.00, 418.3, 12.7)">k</text><text xml:space="preserve" font-family="PlayfairDisplay-Bold,Playfair Display" font-weight="bold" font-size="56.0" fill="#52575F" transform="matrix(1.00, 0.00, -0.00, -1.00, 449.7, 12.7)">d</text><text xml:space="preserve" font-family="PlayfairDisplay-Bold,Playfair Display" font-weight="bold" font-size="56.0" fill="#52575F" transform="matrix(1.00, 0.00, -0.00, -1.00, 483.2, 12.7)">o</text><text xml:space="preserve" font-family="PlayfairDisplay-Bold,Playfair Display" font-weight="bold" font-size="56.0" fill="#52575F" transform="matrix(1.00, 0.00, -0.00, -1.00, 514.2, 12.7)">w</text><text xml:space="preserve" font-family="PlayfairDisplay-Bold,Playfair Display" font-weight="bold" font-size="56.0" fill="#52575F" transform="matrix(1.00, 0.00, -0.00, -1.00, 558.2, 12.7)">n</text></g></svg>