<?xml version="1.0" encoding="UTF-8"?><svg xmlns="http://www.w3.org/2000/svg" xmlns:xlink="http://www.w3.org/1999/xlink" clip-rule="evenodd" stroke-miterlimit="10" viewBox="0 0 565 39"><desc>SVG generated by Keynote</desc><defs></defs><g transform="matrix(1.00, 0.00, -0.00, -1.00, 0.0, 39.0)"><text xml:space="preserve" font-family="PlayfairDisplay-Bold,Playfair Display" font-weight="bold" font-size="36.0" fill="#52575F" transform="matrix(1.00, 0.00, -0.00, -1.00, 2.3, 9.0)">W</text><text xml:space="preserve" font-family="PlayfairDisplay-Bold,Playfair Display" font-weight="bold" font-size="36.0" fill="#52575F" transform="matrix(1.00, 0.00, -0.00, -1.00, 36.4, 9.0)">h</text><text xml:space="preserve" font-family="PlayfairDisplay-Bold,Playfair Display" font-weight="bold" font-size="36.0" fill="#52575F" transform="matrix(1.00, 0.00, -0.00, -1.00, 58.3, 9.0)">a</text><text xml:space="preserve" font-family="PlayfairDisplay-Bold,Playfair Display" font-weight="bold" font-size="36.0" fill="#52575F" transform="matrix(1.00, 0.00, -0.00, -1.00, 76.9, 9.0)">t</text><text xml:space="preserve" font-family="PlayfairDisplay-Bold,Playfair Display" font-weight="bold" font-size="36.0" fill="#52575F" transform="matrix(1.00, 0.00, -0.00, -1.00, 89.6, 9.0)">’</text><text xml:space="preserve" font-family="PlayfairDisplay-Bold,Playfair Display" font-weight="bold" font-size="36.0" fill="#52575F" transform="matrix(1.00, 0.00, -0.00, -1.00, 98.3, 9.0)">s</text><text xml:space="preserve" font-family="PlayfairDisplay-Bold,Playfair Display" font-weight="bold" font-size="36.0" fill="#52575F" transform="matrix(1.00, 0.00, -0.00, -1.00, 114.9, 9.0)"> </text><text xml:space="preserve" font-family="PlayfairDisplay-Bold,Playfair Display" font-weight="bold" font-size="36.0" fill="#52575F" transform="matrix(1.00, 0.00, -0.00, -1.00, 123.3, 9.0)">e</text><text xml:space="preserve" font-family="PlayfairDisplay-Bold,Playfair Display" font-weight="bold" font-size="36.0" fill="#52575F" transform="matrix(1.00, 0.00, -0.00, -1.00, 140.9, 9.0)">x</text><text xml:space="preserve" font-family="PlayfairDisplay-Bold,Playfair Display" font-weight="bold" font-size="36.0" fill="#52575F" transform="matrix(1.00, 0.00, -0.00, -1.00, 159.5, 9.0)">c</text><text xml:space="preserve" font-family="PlayfairDisplay-Bold,Playfair Display" font-weight="bold" font-size="36.0" fill="#52575F" transform="matrix(1.00, 0.00, -0.00, -1.00, 177.3, 9.0)">i</text><text xml:space="preserve" font-family="PlayfairDisplay-Bold,Playfair Display" font-weight="bold" font-size="36.0" fill="#52575F" transform="matrix(1.00, 0.00, -0.00, -1.00, 188.7, 9.0)">t</text><text xml:space="preserve" font-family="PlayfairDisplay-Bold,Playfair Display" font-weight="bold" font-size="36.0" fill="#52575F" transform="matrix(1.00, 0.00, -0.00, -1.00, 201.3, 9.0)">i</text><text xml:space="preserve" font-family="PlayfairDisplay-Bold,Playfair Display" font-weight="bold" font-size="36.0" fill="#52575F" transform="matrix(1.00, 0.00, -0.00, -1.00, 212.7, 9.0)">n</text><text xml:space="preserve" font-family="PlayfairDisplay-Bold,Playfair Display" font-weight="bold" font-size="36.0" fill="#52575F" transform="matrix(1.00, 0.00, -0.00, -1.00, 234.8, 9.0)">g</text><text xml:space="preserve" font-family="PlayfairDisplay-Bold,Playfair Display" font-weight="bold" font-size="36.0" fill="#52575F" transform="matrix(1.00, 0.00, -0.00, -1.00, 254.3, 9.0)"> </text><text xml:space="preserve" font-family="PlayfairDisplay-Bold,Playfair Display" font-weight="bold" font-size="36.0" fill="#52575F" transform="matrix(1.00, 0.00, -0.00, -1.00, 261.7, 9.0)">w</text><text xml:space="preserve" font-family="PlayfairDisplay-Bold,Playfair Display" font-weight="bold" font-size="36.0" fill="#52575F" transform="matrix(1.00, 0.00, -0.00, -1.00, 290.0, 9.0)">i</text><text xml:space="preserve" font-family="PlayfairDisplay-Bold,Playfair Display" font-weight="bold" font-size="36.0" fill="#52575F" transform="matrix(1.00, 0.00, -0.00, -1.00, 301.4, 9.0)">t</text><text xml:space="preserve" font-family="PlayfairDisplay-Bold,Playfair Display" font-weight="bold" font-size="36.0" fill="#52575F" transform="matrix(1.00, 0.00, -0.00, -1.00, 314.0, 9.0)">h</text><text xml:space="preserve" font-family="PlayfairDisplay-Bold,Playfair Display" font-weight="bold" font-size="36.0" fill="#52575F" transform="matrix(1.00, 0.00, -0.00, -1.00, 335.9, 9.0)"> </text><text xml:space="preserve" font-family="PlayfairDisplay-Bold,Playfair Display" font-weight="bold" font-size="36.0" fill="#52575F" transform="matrix(1.00, 0.00, -0.00, -1.00, 343.3, 9.0)">v</text><text xml:space="preserve" font-family="PlayfairDisplay-Bold,Playfair Display" font-weight="bold" font-size="36.0" fill="#52575F" transform="matrix(1.00, 0.00, -0.00, -1.00, 361.0, 9.0)">o</text><text xml:space="preserve" font-family="PlayfairDisplay-Bold,Playfair Display" font-weight="bold" font-size="36.0" fill="#52575F" transform="matrix(1.00, 0.00, -0.00, -1.00, 381.4, 9.0)">i</text><text xml:space="preserve" font-family="PlayfairDisplay-Bold,Playfair Display" font-weight="bold" font-size="36.0" fill="#52575F" transform="matrix(1.00, 0.00, -0.00, -1.00, 392.7, 9.0)">c</text><text xml:space="preserve" font-family="PlayfairDisplay-Bold,Playfair Display" font-weight="bold" font-size="36.0" fill="#52575F" transform="matrix(1.00, 0.00, -0.00, -1.00, 410.6, 9.0)">e</text><text xml:space="preserve" font-family="PlayfairDisplay-Bold,Playfair Display" font-weight="bold" font-size="36.0" fill="#52575F" transform="matrix(1.00, 0.00, -0.00, -1.00, 428.7, 9.0)"> </text><text xml:space="preserve" font-family="PlayfairDisplay-Bold,Playfair Display" font-weight="bold" font-size="36.0" fill="#52575F" transform="matrix(1.00, 0.00, -0.00, -1.00, 437.1, 9.0)">s</text><text xml:space="preserve" font-family="PlayfairDisplay-Bold,Playfair Display" font-weight="bold" font-size="36.0" fill="#52575F" transform="matrix(1.00, 0.00, -0.00, -1.00, 453.7, 9.0)">e</text><text xml:space="preserve" font-family="PlayfairDisplay-Bold,Playfair Display" font-weight="bold" font-size="36.0" fill="#52575F" transform="matrix(1.00, 0.00, -0.00, -1.00, 471.8, 9.0)">a</text><text xml:space="preserve" font-family="PlayfairDisplay-Bold,Playfair Display" font-weight="bold" font-size="36.0" fill="#52575F" transform="matrix(1.00, 0.00, -0.00, -1.00, 490.5, 9.0)">r</text><text xml:space="preserve" font-family="PlayfairDisplay-Bold,Playfair Display" font-weight="bold" font-size="36.0" fill="#52575F" transform="matrix(1.00, 0.00, -0.00, -1.00, 506.8, 9.0)">c</text><text xml:space="preserve" font-family="PlayfairDisplay-Bold,Playfair Display" font-weight="bold" font-size="36.0" fill="#52575F" transform="matrix(1.00, 0.00, -0.00, -1.00, 524.6, 9.0)">h</text><text xml:space="preserve" font-family="PlayfairDisplay-Bold,Playfair Display" font-weight="bold" font-size="36.0" fill="#52575F" transform="matrix(1.00, 0.00, -0.00, -1.00, 545.8, 9.0)">?</text></g></svg>