<?xml version="1.0" encoding="UTF-8"?><svg xmlns="http://www.w3.org/2000/svg" xmlns:xlink="http://www.w3.org/1999/xlink" clip-rule="evenodd" stroke-miterlimit="10" viewBox="0 0 1920 1080"><desc>SVG generated by Keynote</desc><defs></defs><g transform="matrix(1.00, 0.00, -0.00, -1.00, 0.0, 1080.0)"><path d="M 0.0 0.0 L 1920.0 0.0 L 1920.0 1080.0 L 0.0 1080.0 Z M 0.0 0.0 " fill="#FEFFFF"></path><path d="M 0.0 0.0 L 1077.2 0.0 " fill="none" stroke="#5A5E5E" stroke-opacity="0.10" stroke-width="0.25" transform="matrix(0.00, 1.00, 1.00, 0.00, 59.3, 70.6)"></path><path d="M 0.0 0.0 L 1193.1 0.0 " fill="none" stroke="#5A5E5E" stroke-opacity="0.10" stroke-width="0.25" transform="matrix(0.00, 1.00, 1.00, 0.00, 568.1, -39.5)"></path><path d="M 0.0 0.0 L 1193.1 0.0 " fill="none" stroke="#5A5E5E" stroke-opacity="0.10" stroke-width="0.25" transform="matrix(0.00, 1.00, 1.00, 0.00, 1632.1, -29.9)"></path><g><clipPath id="clip0x600002cb3860"><path d="M -7.0 1081.0 L 822.0 1081.0 L 822.0 621.0 L -7.0 621.0 Z M -7.3 1080.6 "></path></clipPath><g clip-path="url(#clip0x600002cb3860)"><image xlink:href="../../67EA1063-79FA-4A94-8B7E-D7C7B34AEFD8/assets/A9ADD172FB998CA363807079A4C42BC4.jpeg" width="1920.00" height="1080.00" transform="matrix(0.44, 0.00, -0.00, -0.44, -2.0, 1091.0)"></image></g></g><g><clipPath id="clip0x6000022b4e80"><path d="M -14.0 618.0 L 822.0 618.0 L 822.0 306.0 L -14.0 306.0 Z M -13.6 618.4 "></path></clipPath><g clip-path="url(#clip0x6000022b4e80)"><image xlink:href="../../67EA1063-79FA-4A94-8B7E-D7C7B34AEFD8/assets/C47057DE164BD6D1B9A39CBA8A24F63E.jpeg" width="1920.00" height="1080.00" transform="matrix(0.77, 0.00, -0.00, -0.77, -1.0, 624.0)"></image></g></g><g><clipPath id="clip0x604002ebb7e0"><path d="M 825.0 1083.0 L 1921.0 1083.0 L 1921.0 711.0 L 825.0 711.0 Z M 824.5 1083.2 "></path></clipPath><g clip-path="url(#clip0x604002ebb7e0)"><image xlink:href="../../67EA1063-79FA-4A94-8B7E-D7C7B34AEFD8/assets/0D98C5F9B57D585E915184BAACC0ACD4.jpeg" width="1920.00" height="1080.00" transform="matrix(0.78, 0.00, -0.00, -0.78, 773.0, 1103.0)"></image></g></g><g><clipPath id="clip0x6000022b5c60"><path d="M 825.0 707.0 L 1366.0 707.0 L 1366.0 306.0 L 825.0 306.0 Z M 824.7 707.4 "></path></clipPath><g clip-path="url(#clip0x6000022b5c60)"><image xlink:href="../../67EA1063-79FA-4A94-8B7E-D7C7B34AEFD8/assets/A0642CC9373D8104D4E7E40DC7073866.jpeg" width="1920.00" height="1080.00" transform="matrix(0.49, 0.00, -0.00, -0.49, 801.0, 768.0)"></image></g></g><g><clipPath id="clip0x600002cbbba0"><path d="M 825.0 303.0 L 1365.0 303.0 L 1365.0 -3.0 L 825.0 -3.0 Z M 824.6 303.0 "></path></clipPath><g clip-path="url(#clip0x600002cbbba0)"><image xlink:href="../../537914F0-CBB3-45D9-A950-8D5D174AEE22/assets/AB75798E32FC88511FAB5C63D530BBFC.jpeg" width="1920.00" height="1080.00" transform="matrix(0.83, 0.00, -0.00, -0.83, 686.0, 719.0)"></image></g></g><g><clipPath id="clip0x6000022b5480"><path d="M 1368.0 708.0 L 1920.0 708.0 L 1920.0 304.0 L 1368.0 304.0 Z M 1368.2 708.3 "></path></clipPath><g clip-path="url(#clip0x6000022b5480)"><image xlink:href="../../67EA1063-79FA-4A94-8B7E-D7C7B34AEFD8/assets/82CC306CCD0207F13B0205891F45AE16.jpeg" width="1920.00" height="1080.00" transform="matrix(0.55, 0.00, -0.00, -0.55, 1357.0, 899.0)"></image></g></g><image xlink:href="../../67EA1063-79FA-4A94-8B7E-D7C7B34AEFD8/assets/DC878A527E95362699B3594AB4640B09.jpeg" width="1920.00" height="1080.00" transform="matrix(0.29, 0.00, -0.00, -0.29, 1368.0, 302.0)"></image><g><clipPath id="clip0x6000024b9b60"><path d="M -13.0 302.0 L 822.0 302.0 L 822.0 1.0 L -13.0 1.0 Z M -12.8 302.4 "></path></clipPath><g clip-path="url(#clip0x6000024b9b60)"><image xlink:href="../../67EA1063-79FA-4A94-8B7E-D7C7B34AEFD8/assets/A9ADD172FB998CA363807079A4C42BC4.jpeg" width="1920.00" height="1080.00" transform="matrix(1.21, 0.00, -0.00, -1.21, -1152.0, 909.0)"></image></g></g></g></svg>