<?xml version="1.0" encoding="UTF-8"?><svg xmlns="http://www.w3.org/2000/svg" xmlns:xlink="http://www.w3.org/1999/xlink" clip-rule="evenodd" stroke-miterlimit="10" viewBox="0 0 158 30"><desc>SVG generated by Keynote</desc><defs></defs><g transform="matrix(1.00, 0.00, -0.00, -1.00, 0.0, 30.0)"><text xml:space="preserve" font-family="SegoeUI-Light,Segoe UI" font-size="27.0" fill="#A6AAA8" transform="matrix(1.00, 0.00, -0.00, -1.00, 0.1, 8.3)">C</text><text xml:space="preserve" font-family="SegoeUI-Light,Segoe UI" font-size="27.0" fill="#A6AAA8" transform="matrix(1.00, 0.00, -0.00, -1.00, 16.8, 8.3)">a</text><text xml:space="preserve" font-family="SegoeUI-Light,Segoe UI" font-size="27.0" fill="#A6AAA8" transform="matrix(1.00, 0.00, -0.00, -1.00, 30.2, 8.3)">s</text><text xml:space="preserve" font-family="SegoeUI-Light,Segoe UI" font-size="27.0" fill="#A6AAA8" transform="matrix(1.00, 0.00, -0.00, -1.00, 40.7, 8.3)">e</text><text xml:space="preserve" font-family="SegoeUI-Light,Segoe UI" font-size="27.0" fill="#A6AAA8" transform="matrix(1.00, 0.00, -0.00, -1.00, 54.3, 8.3)"> </text><text xml:space="preserve" font-family="SegoeUI-Light,Segoe UI" font-size="27.0" fill="#A6AAA8" transform="matrix(1.00, 0.00, -0.00, -1.00, 61.7, 8.3)">S</text><text xml:space="preserve" font-family="SegoeUI-Light,Segoe UI" font-size="27.0" fill="#A6AAA8" transform="matrix(1.00, 0.00, -0.00, -1.00, 75.1, 8.3)">t</text><text xml:space="preserve" font-family="SegoeUI-Light,Segoe UI" font-size="27.0" fill="#A6AAA8" transform="matrix(1.00, 0.00, -0.00, -1.00, 83.1, 8.3)">u</text><text xml:space="preserve" font-family="SegoeUI-Light,Segoe UI" font-size="27.0" fill="#A6AAA8" transform="matrix(1.00, 0.00, -0.00, -1.00, 97.6, 8.3)">d</text><text xml:space="preserve" font-family="SegoeUI-Light,Segoe UI" font-size="27.0" fill="#A6AAA8" transform="matrix(1.00, 0.00, -0.00, -1.00, 112.7, 8.3)">y</text><text xml:space="preserve" font-family="SegoeUI-Light,Segoe UI" font-size="27.0" fill="#A6AAA8" transform="matrix(1.00, 0.00, -0.00, -1.00, 125.0, 8.3)"> </text><text xml:space="preserve" font-family="SegoeUI-Light,Segoe UI" font-size="27.0" fill="#A6AAA8" transform="matrix(1.00, 0.00, -0.00, -1.00, 132.3, 8.3)">#</text><text xml:space="preserve" font-family="SegoeUI-Light,Segoe UI" font-size="27.0" fill="#A6AAA8" transform="matrix(1.00, 0.00, -0.00, -1.00, 148.7, 8.3)">1</text></g></svg>