<?xml version="1.0" encoding="UTF-8"?><svg xmlns="http://www.w3.org/2000/svg" xmlns:xlink="http://www.w3.org/1999/xlink" clip-rule="evenodd" stroke-miterlimit="10" viewBox="0 0 235 28"><desc>SVG generated by Keynote</desc><defs></defs><g transform="matrix(1.00, 0.00, -0.00, -1.00, 0.0, 28.0)"><text xml:space="preserve" font-family="PlayfairDisplay-Italic,Playfair Display" font-style="italic" font-size="25.0" fill="#FEFFFE" transform="matrix(1.00, 0.00, -0.00, -1.00, 0.6, 6.2)">C</text><text xml:space="preserve" font-family="PlayfairDisplay-Italic,Playfair Display" font-style="italic" font-size="25.0" fill="#FEFFFE" transform="matrix(1.00, 0.00, -0.00, -1.00, 17.3, 6.2)">.</text><text xml:space="preserve" font-family="PlayfairDisplay-Italic,Playfair Display" font-style="italic" font-size="25.0" fill="#FEFFFE" transform="matrix(1.00, 0.00, -0.00, -1.00, 23.1, 6.2)"> </text><text xml:space="preserve" font-family="PlayfairDisplay-Italic,Playfair Display" font-style="italic" font-size="25.0" fill="#FEFFFE" transform="matrix(1.00, 0.00, -0.00, -1.00, 29.5, 6.2)">N</text><text xml:space="preserve" font-family="PlayfairDisplay-Italic,Playfair Display" font-style="italic" font-size="25.0" fill="#FEFFFE" transform="matrix(1.00, 0.00, -0.00, -1.00, 47.6, 6.2)">o</text><text xml:space="preserve" font-family="PlayfairDisplay-Italic,Playfair Display" font-style="italic" font-size="25.0" fill="#FEFFFE" transform="matrix(1.00, 0.00, -0.00, -1.00, 59.8, 6.2)">,</text><text xml:space="preserve" font-family="PlayfairDisplay-Italic,Playfair Display" font-style="italic" font-size="25.0" fill="#FEFFFE" transform="matrix(1.00, 0.00, -0.00, -1.00, 65.8, 6.2)"> </text><text xml:space="preserve" font-family="PlayfairDisplay-Italic,Playfair Display" font-style="italic" font-size="25.0" fill="#FEFFFE" transform="matrix(1.00, 0.00, -0.00, -1.00, 72.2, 6.2)">I</text><text xml:space="preserve" font-family="PlayfairDisplay-Italic,Playfair Display" font-style="italic" font-size="25.0" fill="#FEFFFE" transform="matrix(1.00, 0.00, -0.00, -1.00, 80.7, 6.2)"> </text><text xml:space="preserve" font-family="PlayfairDisplay-Italic,Playfair Display" font-style="italic" font-size="25.0" fill="#FEFFFE" transform="matrix(1.00, 0.00, -0.00, -1.00, 87.2, 6.2)">g</text><text xml:space="preserve" font-family="PlayfairDisplay-Italic,Playfair Display" font-style="italic" font-size="25.0" fill="#FEFFFE" transform="matrix(1.00, 0.00, -0.00, -1.00, 98.4, 6.2)">o</text><text xml:space="preserve" font-family="PlayfairDisplay-Italic,Playfair Display" font-style="italic" font-size="25.0" fill="#FEFFFE" transform="matrix(1.00, 0.00, -0.00, -1.00, 110.6, 6.2)">t</text><text xml:space="preserve" font-family="PlayfairDisplay-Italic,Playfair Display" font-style="italic" font-size="25.0" fill="#FEFFFE" transform="matrix(1.00, 0.00, -0.00, -1.00, 119.4, 6.2)"> </text><text xml:space="preserve" font-family="PlayfairDisplay-Italic,Playfair Display" font-style="italic" font-size="25.0" fill="#FEFFFE" transform="matrix(1.00, 0.00, -0.00, -1.00, 125.8, 6.2)">f</text><text xml:space="preserve" font-family="PlayfairDisplay-Italic,Playfair Display" font-style="italic" font-size="25.0" fill="#FEFFFE" transform="matrix(1.00, 0.00, -0.00, -1.00, 133.7, 6.2)">r</text><text xml:space="preserve" font-family="PlayfairDisplay-Italic,Playfair Display" font-style="italic" font-size="25.0" fill="#FEFFFE" transform="matrix(1.00, 0.00, -0.00, -1.00, 144.3, 6.2)">u</text><text xml:space="preserve" font-family="PlayfairDisplay-Italic,Playfair Display" font-style="italic" font-size="25.0" fill="#FEFFFE" transform="matrix(1.00, 0.00, -0.00, -1.00, 158.6, 6.2)">s</text><text xml:space="preserve" font-family="PlayfairDisplay-Italic,Playfair Display" font-style="italic" font-size="25.0" fill="#FEFFFE" transform="matrix(1.00, 0.00, -0.00, -1.00, 168.1, 6.2)">t</text><text xml:space="preserve" font-family="PlayfairDisplay-Italic,Playfair Display" font-style="italic" font-size="25.0" fill="#FEFFFE" transform="matrix(1.00, 0.00, -0.00, -1.00, 176.8, 6.2)">r</text><text xml:space="preserve" font-family="PlayfairDisplay-Italic,Playfair Display" font-style="italic" font-size="25.0" fill="#FEFFFE" transform="matrix(1.00, 0.00, -0.00, -1.00, 186.9, 6.2)">a</text><text xml:space="preserve" font-family="PlayfairDisplay-Italic,Playfair Display" font-style="italic" font-size="25.0" fill="#FEFFFE" transform="matrix(1.00, 0.00, -0.00, -1.00, 200.0, 6.2)">t</text><text xml:space="preserve" font-family="PlayfairDisplay-Italic,Playfair Display" font-style="italic" font-size="25.0" fill="#FEFFFE" transform="matrix(1.00, 0.00, -0.00, -1.00, 208.5, 6.2)">e</text><text xml:space="preserve" font-family="PlayfairDisplay-Italic,Playfair Display" font-style="italic" font-size="25.0" fill="#FEFFFE" transform="matrix(1.00, 0.00, -0.00, -1.00, 219.3, 6.2)">d</text></g></svg>