<?xml version="1.0" encoding="UTF-8"?><svg xmlns="http://www.w3.org/2000/svg" xmlns:xlink="http://www.w3.org/1999/xlink" clip-rule="evenodd" stroke-miterlimit="10" viewBox="0 0 268 32"><desc>SVG generated by Keynote</desc><defs></defs><g transform="matrix(1.00, 0.00, -0.00, -1.00, 0.0, 32.0)"><text xml:space="preserve" font-family="LucidaGrande,Lucida Grande" font-size="25.0" fill="#979B9A" transform="matrix(1.00, 0.00, -0.00, -1.00, 0.3, 7.7)">‣</text><text xml:space="preserve" font-family="PlayfairDisplay,Playfair Display" font-size="25.0" fill="#979B9A" transform="matrix(1.00, 0.00, -0.00, -1.00, 12.0, 6.5)"> </text><text xml:space="preserve" font-family="PlayfairDisplay,Playfair Display" font-size="25.0" fill="#979B9A" transform="matrix(1.00, 0.00, -0.00, -1.00, 18.2, 6.5)">S</text><text xml:space="preserve" font-family="PlayfairDisplay,Playfair Display" font-size="25.0" fill="#979B9A" transform="matrix(1.00, 0.00, -0.00, -1.00, 31.7, 6.5)">e</text><text xml:space="preserve" font-family="PlayfairDisplay,Playfair Display" font-size="25.0" fill="#979B9A" transform="matrix(1.00, 0.00, -0.00, -1.00, 44.4, 6.5)">a</text><text xml:space="preserve" font-family="PlayfairDisplay,Playfair Display" font-size="25.0" fill="#979B9A" transform="matrix(1.00, 0.00, -0.00, -1.00, 56.6, 6.5)">r</text><text xml:space="preserve" font-family="PlayfairDisplay,Playfair Display" font-size="25.0" fill="#979B9A" transform="matrix(1.00, 0.00, -0.00, -1.00, 67.7, 6.5)">c</text><text xml:space="preserve" font-family="PlayfairDisplay,Playfair Display" font-size="25.0" fill="#979B9A" transform="matrix(1.00, 0.00, -0.00, -1.00, 79.8, 6.5)">h</text><text xml:space="preserve" font-family="PlayfairDisplay,Playfair Display" font-size="25.0" fill="#979B9A" transform="matrix(1.00, 0.00, -0.00, -1.00, 94.7, 6.5)"> </text><text xml:space="preserve" font-family="PlayfairDisplay,Playfair Display" font-size="25.0" fill="#979B9A" transform="matrix(1.00, 0.00, -0.00, -1.00, 100.9, 6.5)">w</text><text xml:space="preserve" font-family="PlayfairDisplay,Playfair Display" font-size="25.0" fill="#979B9A" transform="matrix(1.00, 0.00, -0.00, -1.00, 119.9, 6.5)">i</text><text xml:space="preserve" font-family="PlayfairDisplay,Playfair Display" font-size="25.0" fill="#979B9A" transform="matrix(1.00, 0.00, -0.00, -1.00, 127.3, 6.5)">t</text><text xml:space="preserve" font-family="PlayfairDisplay,Playfair Display" font-size="25.0" fill="#979B9A" transform="matrix(1.00, 0.00, -0.00, -1.00, 136.7, 6.5)">h</text><text xml:space="preserve" font-family="PlayfairDisplay,Playfair Display" font-size="25.0" fill="#979B9A" transform="matrix(1.00, 0.00, -0.00, -1.00, 151.5, 6.5)">o</text><text xml:space="preserve" font-family="PlayfairDisplay,Playfair Display" font-size="25.0" fill="#979B9A" transform="matrix(1.00, 0.00, -0.00, -1.00, 165.1, 6.5)">u</text><text xml:space="preserve" font-family="PlayfairDisplay,Playfair Display" font-size="25.0" fill="#979B9A" transform="matrix(1.00, 0.00, -0.00, -1.00, 179.6, 6.5)">t</text><text xml:space="preserve" font-family="PlayfairDisplay,Playfair Display" font-size="25.0" fill="#979B9A" transform="matrix(1.00, 0.00, -0.00, -1.00, 189.0, 6.5)"> </text><text xml:space="preserve" font-family="PlayfairDisplay,Playfair Display" font-size="25.0" fill="#979B9A" transform="matrix(1.00, 0.00, -0.00, -1.00, 195.2, 6.5)">t</text><text xml:space="preserve" font-family="PlayfairDisplay,Playfair Display" font-size="25.0" fill="#979B9A" transform="matrix(1.00, 0.00, -0.00, -1.00, 204.6, 6.5)">y</text><text xml:space="preserve" font-family="PlayfairDisplay,Playfair Display" font-size="25.0" fill="#979B9A" transform="matrix(1.00, 0.00, -0.00, -1.00, 216.9, 6.5)">p</text><text xml:space="preserve" font-family="PlayfairDisplay,Playfair Display" font-size="25.0" fill="#979B9A" transform="matrix(1.00, 0.00, -0.00, -1.00, 231.3, 6.5)">i</text><text xml:space="preserve" font-family="PlayfairDisplay,Playfair Display" font-size="25.0" fill="#979B9A" transform="matrix(1.00, 0.00, -0.00, -1.00, 238.8, 6.5)">n</text><text xml:space="preserve" font-family="PlayfairDisplay,Playfair Display" font-size="25.0" fill="#979B9A" transform="matrix(1.00, 0.00, -0.00, -1.00, 253.8, 6.5)">g</text></g></svg>