<?xml version="1.0" encoding="UTF-8"?><svg xmlns="http://www.w3.org/2000/svg" xmlns:xlink="http://www.w3.org/1999/xlink" clip-rule="evenodd" stroke-miterlimit="10" viewBox="0 0 451 33"><desc>SVG generated by Keynote</desc><defs></defs><g transform="matrix(1.00, 0.00, -0.00, -1.00, 0.0, 33.0)"><text xml:space="preserve" font-family="LucidaGrande,Lucida Grande" font-size="25.0" fill="#979B9A" transform="matrix(1.00, 0.00, -0.00, -1.00, 0.6, 8.1)">‣</text><text xml:space="preserve" font-family="PlayfairDisplay,Playfair Display" font-size="25.0" fill="#979B9A" transform="matrix(1.00, 0.00, -0.00, -1.00, 12.4, 6.8)"> </text><text xml:space="preserve" font-family="PlayfairDisplay,Playfair Display" font-size="25.0" fill="#979B9A" transform="matrix(1.00, 0.00, -0.00, -1.00, 18.5, 6.8)">Y</text><text xml:space="preserve" font-family="PlayfairDisplay,Playfair Display" font-size="25.0" fill="#979B9A" transform="matrix(1.00, 0.00, -0.00, -1.00, 31.8, 6.8)">o</text><text xml:space="preserve" font-family="PlayfairDisplay,Playfair Display" font-size="25.0" fill="#979B9A" transform="matrix(1.00, 0.00, -0.00, -1.00, 45.4, 6.8)">u</text><text xml:space="preserve" font-family="PlayfairDisplay,Playfair Display" font-size="25.0" fill="#979B9A" transform="matrix(1.00, 0.00, -0.00, -1.00, 59.7, 6.8)">’</text><text xml:space="preserve" font-family="PlayfairDisplay,Playfair Display" font-size="25.0" fill="#979B9A" transform="matrix(1.00, 0.00, -0.00, -1.00, 65.4, 6.8)">v</text><text xml:space="preserve" font-family="PlayfairDisplay,Playfair Display" font-size="25.0" fill="#979B9A" transform="matrix(1.00, 0.00, -0.00, -1.00, 77.3, 6.8)">e</text><text xml:space="preserve" font-family="PlayfairDisplay,Playfair Display" font-size="25.0" fill="#979B9A" transform="matrix(1.00, 0.00, -0.00, -1.00, 89.9, 6.8)"> </text><text xml:space="preserve" font-family="PlayfairDisplay,Playfair Display" font-size="25.0" fill="#979B9A" transform="matrix(1.00, 0.00, -0.00, -1.00, 96.1, 6.8)">g</text><text xml:space="preserve" font-family="PlayfairDisplay,Playfair Display" font-size="25.0" fill="#979B9A" transform="matrix(1.00, 0.00, -0.00, -1.00, 108.9, 6.8)">o</text><text xml:space="preserve" font-family="PlayfairDisplay,Playfair Display" font-size="25.0" fill="#979B9A" transform="matrix(1.00, 0.00, -0.00, -1.00, 122.5, 6.8)">t</text><text xml:space="preserve" font-family="PlayfairDisplay,Playfair Display" font-size="25.0" fill="#979B9A" transform="matrix(1.00, 0.00, -0.00, -1.00, 131.9, 6.8)"> </text><text xml:space="preserve" font-family="PlayfairDisplay,Playfair Display" font-size="25.0" fill="#979B9A" transform="matrix(1.00, 0.00, -0.00, -1.00, 138.0, 6.8)">q</text><text xml:space="preserve" font-family="PlayfairDisplay,Playfair Display" font-size="25.0" fill="#979B9A" transform="matrix(1.00, 0.00, -0.00, -1.00, 152.1, 6.8)">u</text><text xml:space="preserve" font-family="PlayfairDisplay,Playfair Display" font-size="25.0" fill="#979B9A" transform="matrix(1.00, 0.00, -0.00, -1.00, 166.5, 6.8)">e</text><text xml:space="preserve" font-family="PlayfairDisplay,Playfair Display" font-size="25.0" fill="#979B9A" transform="matrix(1.00, 0.00, -0.00, -1.00, 179.2, 6.8)">s</text><text xml:space="preserve" font-family="PlayfairDisplay,Playfair Display" font-size="25.0" fill="#979B9A" transform="matrix(1.00, 0.00, -0.00, -1.00, 190.3, 6.8)">t</text><text xml:space="preserve" font-family="PlayfairDisplay,Playfair Display" font-size="25.0" fill="#979B9A" transform="matrix(1.00, 0.00, -0.00, -1.00, 199.7, 6.8)">i</text><text xml:space="preserve" font-family="PlayfairDisplay,Playfair Display" font-size="25.0" fill="#979B9A" transform="matrix(1.00, 0.00, -0.00, -1.00, 207.0, 6.8)">o</text><text xml:space="preserve" font-family="PlayfairDisplay,Playfair Display" font-size="25.0" fill="#979B9A" transform="matrix(1.00, 0.00, -0.00, -1.00, 220.6, 6.8)">n</text><text xml:space="preserve" font-family="PlayfairDisplay,Playfair Display" font-size="25.0" fill="#979B9A" transform="matrix(1.00, 0.00, -0.00, -1.00, 235.7, 6.8)">.</text><text xml:space="preserve" font-family="PlayfairDisplay,Playfair Display" font-size="25.0" fill="#979B9A" transform="matrix(1.00, 0.00, -0.00, -1.00, 241.6, 6.8)"> </text><text xml:space="preserve" font-family="PlayfairDisplay,Playfair Display" font-size="25.0" fill="#979B9A" transform="matrix(1.00, 0.00, -0.00, -1.00, 247.7, 6.8)">V</text><text xml:space="preserve" font-family="PlayfairDisplay,Playfair Display" font-size="25.0" fill="#979B9A" transform="matrix(1.00, 0.00, -0.00, -1.00, 262.0, 6.8)">o</text><text xml:space="preserve" font-family="PlayfairDisplay,Playfair Display" font-size="25.0" fill="#979B9A" transform="matrix(1.00, 0.00, -0.00, -1.00, 275.6, 6.8)">i</text><text xml:space="preserve" font-family="PlayfairDisplay,Playfair Display" font-size="25.0" fill="#979B9A" transform="matrix(1.00, 0.00, -0.00, -1.00, 282.9, 6.8)">c</text><text xml:space="preserve" font-family="PlayfairDisplay,Playfair Display" font-size="25.0" fill="#979B9A" transform="matrix(1.00, 0.00, -0.00, -1.00, 295.0, 6.8)">e</text><text xml:space="preserve" font-family="PlayfairDisplay,Playfair Display" font-size="25.0" fill="#979B9A" transform="matrix(1.00, 0.00, -0.00, -1.00, 307.7, 6.8)"> </text><text xml:space="preserve" font-family="PlayfairDisplay,Playfair Display" font-size="25.0" fill="#979B9A" transform="matrix(1.00, 0.00, -0.00, -1.00, 313.8, 6.8)">h</text><text xml:space="preserve" font-family="PlayfairDisplay,Playfair Display" font-size="25.0" fill="#979B9A" transform="matrix(1.00, 0.00, -0.00, -1.00, 328.7, 6.8)">a</text><text xml:space="preserve" font-family="PlayfairDisplay,Playfair Display" font-size="25.0" fill="#979B9A" transform="matrix(1.00, 0.00, -0.00, -1.00, 341.0, 6.8)">s</text><text xml:space="preserve" font-family="PlayfairDisplay,Playfair Display" font-size="25.0" fill="#979B9A" transform="matrix(1.00, 0.00, -0.00, -1.00, 352.1, 6.8)"> </text><text xml:space="preserve" font-family="PlayfairDisplay,Playfair Display" font-size="25.0" fill="#979B9A" transform="matrix(1.00, 0.00, -0.00, -1.00, 358.3, 6.8)">a</text><text xml:space="preserve" font-family="PlayfairDisplay,Playfair Display" font-size="25.0" fill="#979B9A" transform="matrix(1.00, 0.00, -0.00, -1.00, 370.5, 6.8)">n</text><text xml:space="preserve" font-family="PlayfairDisplay,Playfair Display" font-size="25.0" fill="#979B9A" transform="matrix(1.00, 0.00, -0.00, -1.00, 385.6, 6.8)">s</text><text xml:space="preserve" font-family="PlayfairDisplay,Playfair Display" font-size="25.0" fill="#979B9A" transform="matrix(1.00, 0.00, -0.00, -1.00, 396.7, 6.8)">w</text><text xml:space="preserve" font-family="PlayfairDisplay,Playfair Display" font-size="25.0" fill="#979B9A" transform="matrix(1.00, 0.00, -0.00, -1.00, 415.6, 6.8)">e</text><text xml:space="preserve" font-family="PlayfairDisplay,Playfair Display" font-size="25.0" fill="#979B9A" transform="matrix(1.00, 0.00, -0.00, -1.00, 428.3, 6.8)">r</text><text xml:space="preserve" font-family="PlayfairDisplay,Playfair Display" font-size="25.0" fill="#979B9A" transform="matrix(1.00, 0.00, -0.00, -1.00, 439.4, 6.8)">s</text></g></svg>