<?xml version="1.0" encoding="UTF-8"?><svg xmlns="http://www.w3.org/2000/svg" xmlns:xlink="http://www.w3.org/1999/xlink" clip-rule="evenodd" stroke-miterlimit="10" viewBox="0 0 215 47"><desc>SVG generated by Keynote</desc><defs></defs><g transform="matrix(1.00, 0.00, -0.00, -1.00, 0.0, 47.0)"><text xml:space="preserve" font-family="Roboto-Regular,Roboto" font-size="46.0" fill="#5A5E5E" transform="matrix(1.00, 0.00, -0.00, -1.00, -1.3, 11.2)">L</text><text xml:space="preserve" font-family="Roboto-Regular,Roboto" font-size="46.0" fill="#5A5E5E" transform="matrix(1.00, 0.00, -0.00, -1.00, 23.4, 11.2)">i</text><text xml:space="preserve" font-family="Roboto-Regular,Roboto" font-size="46.0" fill="#5A5E5E" transform="matrix(1.00, 0.00, -0.00, -1.00, 34.6, 11.2)">s</text><text xml:space="preserve" font-family="Roboto-Regular,Roboto" font-size="46.0" fill="#5A5E5E" transform="matrix(1.00, 0.00, -0.00, -1.00, 58.3, 11.2)">t</text><text xml:space="preserve" font-family="Roboto-Regular,Roboto" font-size="46.0" fill="#5A5E5E" transform="matrix(1.00, 0.00, -0.00, -1.00, 73.3, 11.2)">e</text><text xml:space="preserve" font-family="Roboto-Regular,Roboto" font-size="46.0" fill="#5A5E5E" transform="matrix(1.00, 0.00, -0.00, -1.00, 97.6, 11.2)">n</text><text xml:space="preserve" font-family="Roboto-Regular,Roboto" font-size="46.0" fill="#5A5E5E" transform="matrix(1.00, 0.00, -0.00, -1.00, 123.0, 11.2)">i</text><text xml:space="preserve" font-family="Roboto-Regular,Roboto" font-size="46.0" fill="#5A5E5E" transform="matrix(1.00, 0.00, -0.00, -1.00, 134.2, 11.2)">n</text><text xml:space="preserve" font-family="Roboto-Regular,Roboto" font-size="46.0" fill="#5A5E5E" transform="matrix(1.00, 0.00, -0.00, -1.00, 159.5, 11.2)">g</text><text xml:space="preserve" font-family="Roboto-Regular,Roboto" font-size="46.0" fill="#5A5E5E" transform="matrix(1.00, 0.00, -0.00, -1.00, 185.3, 11.2)">…</text></g></svg>