<?xml version="1.0" encoding="UTF-8"?><svg xmlns="http://www.w3.org/2000/svg" xmlns:xlink="http://www.w3.org/1999/xlink" clip-rule="evenodd" stroke-miterlimit="10" viewBox="0 0 1920 1080"><desc>SVG generated by Keynote</desc><defs></defs><g transform="matrix(1.00, 0.00, -0.00, -1.00, 0.0, 1080.0)"><path d="M 0.0 0.0 L 1920.0 0.0 L 1920.0 1080.0 L 0.0 1080.0 Z M 0.0 0.0 " fill="#FEFFFF"></path><path d="M -2.0 1086.0 L 1922.0 1086.0 L 1922.0 -6.0 L -2.0 -6.0 Z M -2.0 1086.0 " fill="#52575F"></path><path d="M 0.0 0.0 L 1924.0 0.0 L 1924.0 1092.0 L 0.0 1092.0 Z M 0.0 0.0 " fill="none" stroke="#78A9B3" stroke-width="2.00" stroke-linejoin="round" transform="matrix(1.00, 0.00, 0.00, -1.00, -2.0, 1086.0)"></path><text xml:space="preserve" font-family="PlayfairDisplay-Bold,Playfair Display" font-weight="bold" font-size="70.0" fill="#DCDDE0" transform="matrix(1.00, 0.00, -0.00, -1.00, 1474.9, 145.8)">P</text><text xml:space="preserve" font-family="PlayfairDisplay-Bold,Playfair Display" font-weight="bold" font-size="70.0" fill="#DCDDE0" transform="matrix(1.00, 0.00, -0.00, -1.00, 1518.7, 145.8)">o</text><text xml:space="preserve" font-family="PlayfairDisplay-Bold,Playfair Display" font-weight="bold" font-size="70.0" fill="#DCDDE0" transform="matrix(1.00, 0.00, -0.00, -1.00, 1558.3, 145.8)">r</text><text xml:space="preserve" font-family="PlayfairDisplay-Bold,Playfair Display" font-weight="bold" font-size="70.0" fill="#DCDDE0" transform="matrix(1.00, 0.00, -0.00, -1.00, 1590.9, 145.8)">t</text><text xml:space="preserve" font-family="PlayfairDisplay-Bold,Playfair Display" font-weight="bold" font-size="70.0" fill="#DCDDE0" transform="matrix(1.00, 0.00, -0.00, -1.00, 1615.6, 145.8)">f</text><text xml:space="preserve" font-family="PlayfairDisplay-Bold,Playfair Display" font-weight="bold" font-size="70.0" fill="#DCDDE0" transform="matrix(1.00, 0.00, -0.00, -1.00, 1639.0, 145.8)">o</text><text xml:space="preserve" font-family="PlayfairDisplay-Bold,Playfair Display" font-weight="bold" font-size="70.0" fill="#DCDDE0" transform="matrix(1.00, 0.00, -0.00, -1.00, 1677.8, 145.8)">l</text><text xml:space="preserve" font-family="PlayfairDisplay-Bold,Playfair Display" font-weight="bold" font-size="70.0" fill="#DCDDE0" transform="matrix(1.00, 0.00, -0.00, -1.00, 1699.6, 145.8)">i</text><text xml:space="preserve" font-family="PlayfairDisplay-Bold,Playfair Display" font-weight="bold" font-size="70.0" fill="#DCDDE0" transform="matrix(1.00, 0.00, -0.00, -1.00, 1721.6, 145.8)">o</text><path d="M 0.0 0.0 L 1077.2 0.0 " fill="none" stroke="#5A5E5E" stroke-opacity="0.10" stroke-width="0.25" transform="matrix(0.00, 1.00, 1.00, 0.00, 595.3, 5.3)"></path><path d="M 0.0 0.0 L 1077.2 0.0 " fill="none" stroke="#5A5E5E" stroke-opacity="0.10" stroke-width="0.25" transform="matrix(0.00, 1.00, 1.00, 0.00, 1556.0, 13.9)"></path><path d="M 0.0 0.0 L 1077.2 0.0 " fill="none" stroke="#5A5E5E" stroke-opacity="0.10" stroke-width="0.25" transform="matrix(0.00, 1.00, 1.00, 0.00, 142.0, -1.4)"></path></g></svg>