<?xml version="1.0" encoding="UTF-8"?><svg xmlns="http://www.w3.org/2000/svg" xmlns:xlink="http://www.w3.org/1999/xlink" clip-rule="evenodd" stroke-miterlimit="10" viewBox="0 0 1920 1080"><desc>SVG generated by Keynote</desc><defs></defs><g transform="matrix(1.00, 0.00, -0.00, -1.00, 0.0, 1080.0)"><path d="M 0.0 0.0 L 1920.0 0.0 L 1920.0 1080.0 L 0.0 1080.0 Z M 0.0 0.0 " fill="#FEFFFF"></path><text xml:space="preserve" font-family="PlayfairDisplay-Bold,Playfair Display" font-weight="bold" font-size="100.0" fill="#535352" transform="matrix(1.00, 0.00, -0.00, -1.00, 172.3, 248.9)">D</text><text xml:space="preserve" font-family="PlayfairDisplay-Bold,Playfair Display" font-weight="bold" font-size="100.0" fill="#535352" transform="matrix(1.00, 0.00, -0.00, -1.00, 249.2, 248.9)">a</text><text xml:space="preserve" font-family="PlayfairDisplay-Bold,Playfair Display" font-weight="bold" font-size="100.0" fill="#535352" transform="matrix(1.00, 0.00, -0.00, -1.00, 301.0, 248.9)">n</text><text xml:space="preserve" font-family="PlayfairDisplay-Bold,Playfair Display" font-weight="bold" font-size="100.0" fill="#535352" transform="matrix(1.00, 0.00, -0.00, -1.00, 362.4, 248.9)">i</text><text xml:space="preserve" font-family="PlayfairDisplay-Bold,Playfair Display" font-weight="bold" font-size="100.0" fill="#535352" transform="matrix(1.00, 0.00, -0.00, -1.00, 393.9, 248.9)">l</text><text xml:space="preserve" font-family="PlayfairDisplay-Bold,Playfair Display" font-weight="bold" font-size="100.0" fill="#535352" transform="matrix(1.00, 0.00, -0.00, -1.00, 424.0, 248.9)">o</text><text xml:space="preserve" font-family="PlayfairDisplay-Bold,Playfair Display" font-weight="bold" font-size="100.0" fill="#535352" transform="matrix(1.00, 0.00, -0.00, -1.00, 480.5, 248.9)"> </text><text xml:space="preserve" font-family="PlayfairDisplay-Bold,Playfair Display" font-weight="bold" font-size="100.0" fill="#535352" transform="matrix(1.00, 0.00, -0.00, -1.00, 503.8, 248.9)">P</text><text xml:space="preserve" font-family="PlayfairDisplay-Bold,Playfair Display" font-weight="bold" font-size="100.0" fill="#535352" transform="matrix(1.00, 0.00, -0.00, -1.00, 566.7, 248.9)">a</text><text xml:space="preserve" font-family="PlayfairDisplay-Bold,Playfair Display" font-weight="bold" font-size="100.0" fill="#535352" transform="matrix(1.00, 0.00, -0.00, -1.00, 618.5, 248.9)">r</text><text xml:space="preserve" font-family="PlayfairDisplay-Bold,Playfair Display" font-weight="bold" font-size="100.0" fill="#535352" transform="matrix(1.00, 0.00, -0.00, -1.00, 665.2, 248.9)">i</text><text xml:space="preserve" font-family="PlayfairDisplay-Bold,Playfair Display" font-weight="bold" font-size="100.0" fill="#535352" transform="matrix(1.00, 0.00, -0.00, -1.00, 696.7, 248.9)">s</text><text xml:space="preserve" font-family="PlayfairDisplay-Bold,Playfair Display" font-weight="bold" font-size="100.0" fill="#535352" transform="matrix(1.00, 0.00, -0.00, -1.00, 742.9, 248.9)">e</text><text xml:space="preserve" font-family="PlayfairDisplay,Playfair Display" font-size="40.0" fill="#808784" transform="matrix(1.00, 0.00, -0.00, -1.00, 175.7, 188.0)">C</text><text xml:space="preserve" font-family="PlayfairDisplay,Playfair Display" font-size="40.0" fill="#808784" transform="matrix(1.00, 0.00, -0.00, -1.00, 203.2, 188.0)">r</text><text xml:space="preserve" font-family="PlayfairDisplay,Playfair Display" font-size="40.0" fill="#808784" transform="matrix(1.00, 0.00, -0.00, -1.00, 220.9, 188.0)">e</text><text xml:space="preserve" font-family="PlayfairDisplay,Playfair Display" font-size="40.0" fill="#808784" transform="matrix(1.00, 0.00, -0.00, -1.00, 241.1, 188.0)">a</text><text xml:space="preserve" font-family="PlayfairDisplay,Playfair Display" font-size="40.0" fill="#808784" transform="matrix(1.00, 0.00, -0.00, -1.00, 260.6, 188.0)">t</text><text xml:space="preserve" font-family="PlayfairDisplay,Playfair Display" font-size="40.0" fill="#808784" transform="matrix(1.00, 0.00, -0.00, -1.00, 275.6, 188.0)">i</text><text xml:space="preserve" font-family="PlayfairDisplay,Playfair Display" font-size="40.0" fill="#808784" transform="matrix(1.00, 0.00, -0.00, -1.00, 287.3, 188.0)">v</text><text xml:space="preserve" font-family="PlayfairDisplay,Playfair Display" font-size="40.0" fill="#808784" transform="matrix(1.00, 0.00, -0.00, -1.00, 306.3, 188.0)">e</text><text xml:space="preserve" font-family="PlayfairDisplay,Playfair Display" font-size="40.0" fill="#808784" transform="matrix(1.00, 0.00, -0.00, -1.00, 326.5, 188.0)">&amp;</text><text xml:space="preserve" font-family="PlayfairDisplay,Playfair Display" font-size="40.0" fill="#808784" transform="matrix(1.00, 0.00, -0.00, -1.00, 358.5, 188.0)">A</text><text xml:space="preserve" font-family="PlayfairDisplay,Playfair Display" font-size="40.0" fill="#808784" transform="matrix(1.00, 0.00, -0.00, -1.00, 383.6, 188.0)">r</text><text xml:space="preserve" font-family="PlayfairDisplay,Playfair Display" font-size="40.0" fill="#808784" transform="matrix(1.00, 0.00, -0.00, -1.00, 401.4, 188.0)">t</text><text xml:space="preserve" font-family="PlayfairDisplay,Playfair Display" font-size="40.0" fill="#808784" transform="matrix(1.00, 0.00, -0.00, -1.00, 416.5, 188.0)"> </text><text xml:space="preserve" font-family="PlayfairDisplay,Playfair Display" font-size="40.0" fill="#808784" transform="matrix(1.00, 0.00, -0.00, -1.00, 426.3, 188.0)">d</text><text xml:space="preserve" font-family="PlayfairDisplay,Playfair Display" font-size="40.0" fill="#808784" transform="matrix(1.00, 0.00, -0.00, -1.00, 449.7, 188.0)">i</text><text xml:space="preserve" font-family="PlayfairDisplay,Playfair Display" font-size="40.0" fill="#808784" transform="matrix(1.00, 0.00, -0.00, -1.00, 461.5, 188.0)">r</text><text xml:space="preserve" font-family="PlayfairDisplay,Playfair Display" font-size="40.0" fill="#808784" transform="matrix(1.00, 0.00, -0.00, -1.00, 479.2, 188.0)">e</text><text xml:space="preserve" font-family="PlayfairDisplay,Playfair Display" font-size="40.0" fill="#808784" transform="matrix(1.00, 0.00, -0.00, -1.00, 499.5, 188.0)">c</text><text xml:space="preserve" font-family="PlayfairDisplay,Playfair Display" font-size="40.0" fill="#808784" transform="matrix(1.00, 0.00, -0.00, -1.00, 518.9, 188.0)">t</text><text xml:space="preserve" font-family="PlayfairDisplay,Playfair Display" font-size="40.0" fill="#808784" transform="matrix(1.00, 0.00, -0.00, -1.00, 533.9, 188.0)">o</text><text xml:space="preserve" font-family="PlayfairDisplay,Playfair Display" font-size="40.0" fill="#808784" transform="matrix(1.00, 0.00, -0.00, -1.00, 555.7, 188.0)">r</text><path d="M 0.5 0.1 L 1083.5 0.1 " fill="none" stroke="#5A5E5E" stroke-opacity="0.06" stroke-width="2.00" transform="matrix(0.00, -1.00, -1.00, 0.00, 1764.1, 1082.5)"></path><path d="M -0.2 -0.0 L 1083.8 -0.0 " fill="none" stroke="#5A5E5E" stroke-opacity="0.06" stroke-width="2.00" transform="matrix(0.00, -1.00, -1.00, 0.00, 1313.0, 1075.8)"></path><path d="M 0.5 -0.2 L 1083.5 -0.2 " fill="none" stroke="#5A5E5E" stroke-opacity="0.06" stroke-width="2.00" transform="matrix(0.00, -1.00, -1.00, 0.00, 359.8, 1082.5)"></path></g></svg>